<svg width="380" height="380" viewBox="0 0 380 380" fill="none" xmlns="http://www.w3.org/2000/svg">
<g clip-path="url(#clip0_4095_5)">
<path d="M379.5 189.887C379.5 294.524 294.751 379.273 190.113 379.273C85.4751 379.273 0.5 294.523 0.5 189.887C0.5 85.2493 85.2493 0.5 189.887 0.5C294.525 0.5 379.5 85.2501 379.5 189.887Z" stroke="url(#paint0_linear_4095_5)"/>
<path d="M379.5 189.887C379.5 294.524 294.751 379.273 190.113 379.273C85.4751 379.273 0.5 294.523 0.5 189.887C0.5 85.2493 85.2493 0.5 189.887 0.5C294.525 0.5 379.5 85.2501 379.5 189.887Z" stroke="#EDEFF5"/>
<path d="M317.415 190C317.415 260.398 260.432 317.415 190.076 317.415C119.72 317.415 62.5845 260.397 62.5845 190C62.5845 119.602 119.568 62.5845 189.924 62.5845C260.28 62.5845 317.415 119.603 317.415 190Z" stroke="#EDEFF5"/>
<path d="M273.528 190C273.528 236.15 236.172 273.528 190.05 273.528C143.927 273.528 106.472 236.15 106.472 190C106.472 143.85 143.828 106.472 189.95 106.472C236.073 106.472 273.528 143.851 273.528 190Z" stroke="#EDEFF5"/>
<path d="M237.134 190C237.134 216.042 216.054 237.134 190.028 237.134C164.002 237.134 142.866 216.041 142.866 190C142.866 163.958 163.946 142.866 189.972 142.866C215.998 142.866 237.134 163.959 237.134 190Z" stroke="#EDEFF5"/>
<path d="M272.367 91.9976L189.887 272.594L107.633 91.9976H96.9827V263.077H110.125V129.159L182.409 288.002H197.364L269.875 129.159V263.077H283.017V91.9976H272.367Z" fill="#EDEFF5"/>
</g>
<defs>
<linearGradient id="paint0_linear_4095_5" x1="365.549" y1="356.451" x2="380" y2="-389.268" gradientUnits="userSpaceOnUse">
<stop stop-color="#4298CB"/>
<stop offset="1" stop-color="white" stop-opacity="0"/>
</linearGradient>
<clipPath id="clip0_4095_5">
<rect width="380" height="380" fill="white"/>
</clipPath>
</defs>
</svg>
