<svg width="79" height="51" viewBox="0 0 79 51" fill="none" xmlns="http://www.w3.org/2000/svg">
<g clip-path="url(#clip0_0_389)">
<mask id="mask0_0_389" style="mask-type:luminance" maskUnits="userSpaceOnUse" x="0" y="0" width="79" height="51">
<path d="M39.358 50.5722H78.7158V0H39.358H0.000244141V50.5722H39.358Z" fill="white"/>
</mask>
<g mask="url(#mask0_0_389)">
<path fill-rule="evenodd" clip-rule="evenodd" d="M39.8316 24.0586C41.272 22.85 42.5981 21.2259 43.4701 19.4508C42.2951 19.073 41.0445 18.8091 39.8316 18.8091V24.0586ZM38.9219 24.0205C37.4443 22.85 36.1177 21.2259 35.2839 19.4508C36.4207 19.0354 37.6713 18.8091 38.9219 18.8091V24.0205ZM39.8316 0.528816C41.272 1.73747 42.5981 3.32391 43.4701 5.09901C42.2951 5.51444 41.0445 5.77884 39.8316 5.77884V0.528816ZM38.9219 0.528816C37.4443 1.73747 36.1177 3.36154 35.2839 5.09901C36.4207 5.47631 37.6713 5.77884 38.9219 5.77884V0.528816ZM39.8316 17.8644V12.7282H45.2891C45.2891 14.7677 44.7585 16.8072 43.887 18.6581C42.6364 18.2045 41.1582 17.902 39.8316 17.8644ZM51.6941 12.7282H46.1988C46.1228 14.994 45.6682 16.9959 44.7585 19.0354C45.9335 19.5642 46.9948 20.244 48.0178 21.0749C50.2537 18.8467 51.5808 15.8249 51.6941 12.7282ZM47.3357 21.679C46.4637 20.9239 45.4029 20.244 44.3416 19.7905C43.3563 21.6413 42.1435 23.152 40.6276 24.5117C43.091 24.2097 45.4029 23.2654 47.3357 21.679ZM38.9219 17.8644V12.7282H33.4644C33.5027 14.7677 33.9573 16.8449 34.8288 18.6581C36.1177 18.2045 37.5198 17.902 38.9219 17.8644ZM27.06 12.7282H32.5174C32.6312 14.994 33.1236 16.9582 34.0328 19.0354C32.7828 19.5642 31.7592 20.244 30.7362 21.0749C28.5004 18.8467 27.211 15.9006 27.06 12.7282ZM31.3801 21.679C32.2899 20.9615 33.3512 20.2064 34.4124 19.7905C35.3972 21.6413 36.6105 23.152 38.1264 24.5117C35.663 24.2097 33.3134 23.2654 31.3801 21.679ZM39.8316 6.68496V11.8216H45.2891C45.2891 9.74447 44.7585 7.78022 43.887 5.85411C42.5981 6.34529 41.196 6.64733 39.8316 6.68496ZM51.6941 11.8216H46.1988C46.1228 9.59345 45.6304 7.55394 44.7585 5.55207C45.9335 5.02325 47.0321 4.30579 48.0178 3.47493C50.3675 5.81648 51.5808 8.72447 51.6941 11.8216ZM47.3357 2.87085C46.4259 3.62595 45.4029 4.34342 44.3416 4.75884C43.3563 2.90849 42.1435 1.43543 40.6276 0C43.091 0.340165 45.4029 1.28441 47.3357 2.87085ZM38.9219 6.68496V11.8216H33.4644C33.5027 9.7821 33.9573 7.74259 34.8288 5.85411C36.1177 6.34529 37.5198 6.64733 38.9219 6.68496ZM27.06 11.8216H32.5174C32.6312 9.55532 33.1236 7.59157 34.0328 5.55207C32.7828 5.02325 31.7592 4.34342 30.7362 3.47493C28.4621 5.74121 27.211 8.64871 27.06 11.8216ZM31.3801 2.87085C32.2899 3.62595 33.3134 4.34342 34.4124 4.75884C35.3594 2.94612 36.6483 1.3973 38.1264 0C35.663 0.340165 33.3512 1.28441 31.3801 2.87085ZM0.000244141 16.3913H24.5961C25.5058 20.8857 28.6136 24.6251 34.8288 27.231C34.1471 29.3839 31.7215 31.3858 29.2203 31.3858H15.8797C13.8332 31.3858 12.2413 29.6483 11.5968 28.2887H25.1267C25.9604 28.1376 25.9987 27.4954 25.165 27.4202H11.8627C10.1192 27.4202 8.56504 25.9095 7.65579 24.323H23.1939C23.9522 24.2097 23.9522 23.5298 23.1939 23.4164H7.54151C5.98835 23.4164 4.54796 21.6037 3.9418 20.3574H21.1096C21.9811 20.244 21.9811 19.4508 21.1096 19.4132H3.63822C2.27385 19.4132 0.947747 17.9401 0.000244141 16.3913ZM78.716 16.3913H54.1575C53.2477 20.8857 50.1026 24.6251 43.887 27.231C44.6069 29.3839 47.0321 31.3858 49.5337 31.3858H62.8743C64.8831 31.3858 66.5128 29.6483 67.1567 28.2887H53.5891C52.7931 28.1376 52.7176 27.4954 53.5513 27.4202H66.8919C68.5966 27.4202 70.189 25.9095 71.06 24.323H55.5596C54.7636 24.2097 54.7636 23.5298 55.5596 23.4164H71.1743C72.7657 23.4164 74.2061 21.6037 74.7745 20.3574H57.6061C56.7724 20.244 56.7724 19.4508 57.6061 19.4132H75.1158C76.4802 19.4132 77.8063 17.9401 78.716 16.3913ZM51.0119 50.5722L58.895 34.5206H64.0866L67.3082 50.5722H62.4192L62.1921 48.6837H57.0382L56.204 50.5722H51.0119ZM58.3261 45.3222H61.6615L60.79 39.4304L58.3261 45.3222ZM40.7791 50.5722L42.5604 38.4862H38.0127L38.7709 34.4448H52.8309L52.0349 38.4862H47.7148L45.9335 50.5722H40.7791ZM19.6693 50.5722L27.5524 34.5206H32.7067L35.9661 50.5722H31.1148L30.85 48.6837H25.6956L24.8619 50.5722H19.6693ZM26.984 45.3222H30.3194L29.4474 39.4304L26.984 45.3222ZM11.2182 50.5722L14.4394 34.5206H19.6693L16.4481 50.5722H11.2182Z" fill="#95A0B3"/>
</g>
</g>
<defs>
<clipPath id="clip0_0_389">
<rect width="79" height="51" fill="white"/>
</clipPath>
</defs>
</svg>
