<svg width="82" height="82" viewBox="0 0 82 82" fill="none" xmlns="http://www.w3.org/2000/svg">
<path fill-rule="evenodd" clip-rule="evenodd" d="M14.4448 55.1605C14.4382 55.2184 14.4303 55.2503 14.4316 55.2817C14.4628 56.0922 14.4888 56.903 14.5306 57.7129C14.5433 57.9598 14.5602 58.219 14.6432 58.4473C14.9808 59.3767 15.3423 60.2972 15.7002 61.219C15.9002 61.7341 16.0564 62.2763 16.3256 62.7526C17.4501 64.742 19.0301 66.3026 20.9086 67.5649C22.9926 68.9653 25.2816 69.8883 27.6935 70.5223C29.2232 70.9244 30.7767 71.1919 32.35 71.3388C33.6023 71.4558 34.8569 71.5084 36.1147 71.4427C36.2317 71.4366 36.2853 71.3935 36.3189 71.2874C36.3816 71.0897 36.4588 70.8967 36.5212 70.699C37.4144 67.8677 38.1768 64.9992 38.9048 62.1211C39.0622 61.4988 39.206 60.873 39.3631 60.2198C39.2392 60.227 39.1454 60.2305 39.0519 60.2383C37.7801 60.3449 36.51 60.5096 35.2363 60.5449C33.5701 60.591 31.9002 60.568 30.2337 60.5141C28.3046 60.4518 26.3908 60.2075 24.4924 59.8511C22.4036 59.4591 20.3589 58.9134 18.4208 58.0162C16.9554 57.3378 15.6011 56.494 14.539 55.2373C14.519 55.2138 14.4907 55.1975 14.4448 55.1605ZM39.8964 59.728C39.6408 60.7856 39.4199 61.8149 39.1417 62.8283C38.4021 65.5234 37.639 68.212 36.8809 70.902C36.8154 71.1343 36.7179 71.3575 36.6362 71.5852C36.5733 71.7606 36.4618 71.8391 36.2662 71.8482C33.9298 71.958 31.6182 71.7582 29.3241 71.3111C26.9961 70.8574 24.754 70.1443 22.6373 69.0558C19.9816 67.6901 17.7345 65.8504 16.1504 63.2631C15.9076 62.8665 15.7536 62.4147 15.5541 61.9906C15.4515 61.7725 15.3561 61.5482 15.2286 61.3453C13.7689 59.0221 12.3163 56.6933 11.0433 54.2594C9.83577 51.9505 9.00563 49.4962 8.45788 46.946C8.0609 45.0978 7.92876 43.2284 8.0963 41.343C8.27456 39.3372 8.78691 37.4153 9.6353 35.5962C10.0757 34.652 10.6017 33.7482 11.1003 32.8324C11.1734 32.6982 11.1727 32.6264 11.0675 32.5162C10.3765 31.7922 9.69279 31.0611 9.00708 30.3319C8.95701 30.2787 8.90991 30.2227 8.82573 30.1277C9.28204 30.1688 9.68871 30.203 10.0949 30.2424C11.4679 30.3755 12.8408 30.5102 14.2137 30.6446C15.3477 30.7557 16.4813 30.8697 17.6157 30.975C17.7513 30.9876 17.7796 31.0631 17.8121 31.1688C18.1573 32.2928 18.5064 33.4155 18.8531 34.539C19.7422 37.4204 20.6306 40.302 21.519 43.1838C21.5405 43.2537 21.5579 43.3249 21.5399 43.428C21.4558 43.3657 21.3676 43.3083 21.2884 43.2402C20.6928 42.7275 20.1039 42.2069 19.5026 41.7012C19.1865 41.4353 19.1761 41.4455 18.9109 41.7555C17.2031 43.7516 16.0204 46.041 15.2113 48.5366C14.6516 50.2631 14.3028 52.0321 14.2111 53.8487C14.2051 53.9692 14.2437 54.1104 14.3072 54.2132C15.1171 55.5228 16.2928 56.4185 17.6088 57.1463C19.2387 58.0477 20.9878 58.6273 22.7869 59.065C24.8589 59.5692 26.9615 59.8693 29.0851 60.0356C31.1277 60.1956 33.1734 60.2588 35.2179 60.1401C36.6897 60.0547 38.1565 59.8838 39.6255 59.7511C39.6996 59.7444 39.7738 59.7384 39.8964 59.728Z" fill="#95A0B3"/>
<path fill-rule="evenodd" clip-rule="evenodd" d="M58.5984 32.1467C58.6447 32.2225 58.6739 32.2755 58.708 32.3253C60.798 35.3831 62.5179 38.6429 63.8908 42.0877C65.1638 45.2819 66.1468 48.5554 66.4004 52.0134C66.5027 53.4092 66.4622 54.7998 66.1381 56.1691C66.048 56.5497 65.9326 56.9243 65.8289 57.3016C65.8403 57.3166 65.8518 57.3316 65.8632 57.3466C66.5836 56.8541 67.3121 56.3731 68.0205 55.8636C68.3203 55.6481 68.5581 55.3443 68.8591 55.131C69.3291 54.7979 69.7907 54.4514 70.1282 53.9857C70.5971 53.3386 71.023 52.6592 71.4555 51.986C72.9295 49.6917 73.6001 47.148 73.72 44.4401C73.7946 42.7566 73.6557 41.0858 73.343 39.4318C72.7028 36.0465 71.5142 32.8667 69.8162 29.8783C69.7112 29.6935 69.5949 29.6483 69.405 29.6839C68.8455 29.7889 68.2797 29.8642 67.725 29.9901C65.2237 30.5579 62.7247 31.1362 60.2265 31.7179C59.6877 31.8434 59.1558 31.999 58.5984 32.1467ZM47.1282 73.6772C46.7289 72.7144 46.3446 71.789 45.9614 70.8631C45.2397 69.1191 44.5214 67.3736 43.7931 65.6324C43.7256 65.4711 43.7465 65.3804 43.8661 65.2593C46.6925 62.3957 49.5151 59.5282 52.3359 56.6589C52.3971 56.5966 52.4302 56.5061 52.4764 56.4287C52.5098 56.4517 52.5431 56.4746 52.5765 56.4976C52.5557 56.6124 52.539 56.7282 52.5133 56.8419C52.3657 57.4966 52.2088 58.1493 52.0694 58.8058C51.9841 59.2073 51.9949 59.2131 52.3833 59.3072C54.5061 59.8215 56.6516 59.9541 58.8218 59.706C60.9532 59.4623 62.9873 58.8786 64.9211 57.943C65.0382 57.8863 65.154 57.769 65.2102 57.6507C65.6669 56.6893 65.8856 55.6624 65.9782 54.607C66.188 52.2142 65.8329 49.8779 65.2556 47.5679C64.3474 43.9339 62.9216 40.5059 61.1777 37.2071C60.2555 35.4628 59.2382 33.7771 58.0997 32.1673C58.0482 32.0944 57.9989 32.0199 57.9303 31.9195C58.2537 31.8257 58.5567 31.7254 58.8658 31.6503C61.1383 31.0984 63.4083 30.5349 65.687 30.0099C66.8893 29.7328 68.1066 29.5211 69.3188 29.2887C69.8681 29.1834 69.8919 29.2005 70.1692 29.6865C71.8964 32.714 73.0987 35.9402 73.7452 39.374C74.0643 41.0694 74.2035 42.7817 74.1231 44.5066C73.9946 47.2628 73.3085 49.8533 71.8091 52.1886C70.3751 54.4219 69.1265 56.7655 67.7912 59.0574C66.2589 61.6876 64.3515 63.9991 62.1088 66.0312C60.2334 67.7305 58.1235 69.0386 55.7079 69.8089C54.3218 70.2508 52.9034 70.5392 51.4498 70.5872C50.4357 70.6205 49.4193 70.5887 48.4042 70.5712C48.2544 70.5686 48.2165 70.6324 48.1772 70.7436C47.852 71.6628 47.5249 72.5814 47.1981 73.5001C47.1821 73.5448 47.1633 73.5885 47.1282 73.6772Z" fill="#95A0B3"/>
<path fill-rule="evenodd" clip-rule="evenodd" d="M43.0418 10.8264C43.0482 10.8091 43.0547 10.7918 43.0611 10.7745C42.6594 10.5276 42.2686 10.2598 41.8537 10.0379C40.921 9.53926 39.9888 9.02727 38.9324 8.83947C38.1022 8.69192 37.2693 8.55656 36.4342 8.44048C35.0206 8.24398 33.6132 8.31432 32.2166 8.60143C30.2011 9.01578 28.3578 9.84885 26.6345 10.9663C24.3545 12.4447 22.4114 14.3017 20.686 16.4001C19.5918 17.7309 18.6155 19.1449 17.7573 20.6427C17.6661 20.8019 17.6716 20.9136 17.7859 21.0469C17.907 21.1881 18.0097 21.3452 18.1267 21.4903C20.2953 24.1803 22.5781 26.7689 24.927 29.2986C25.0041 29.3817 25.0843 29.4617 25.1595 29.5395C25.1845 29.5216 25.1926 29.5189 25.1952 29.5135C25.2918 29.315 25.3875 29.1159 25.4842 28.9173C27.3842 25.0172 29.7105 21.3986 32.5232 18.1064C34.1426 16.2109 35.9028 14.4632 37.9534 13.0368C39.2901 12.1069 40.7084 11.349 42.3031 10.9735C42.5474 10.916 42.7955 10.875 43.0418 10.8264ZM66.1875 19.5253C65.7481 20.1161 65.3369 20.6697 64.9251 21.2228C63.576 23.0349 62.2257 24.8461 60.8799 26.6605C60.7905 26.7809 60.7189 26.8249 60.5596 26.7776C56.7402 25.6427 52.9186 24.5151 49.0977 23.3854C49.0546 23.3727 49.0142 23.3503 48.9255 23.3121C49.0349 23.2713 49.1004 23.2419 49.1685 23.2222C49.8734 23.0187 50.5817 22.8264 51.283 22.6111C51.8246 22.4447 51.8221 22.4318 51.6632 21.8869C50.4779 17.8243 48.1702 14.5356 44.9115 11.9043C44.6437 11.688 44.367 11.4821 44.0844 11.2859C44.0018 11.2285 43.8841 11.1932 43.7836 11.1958C42.438 11.2298 41.2002 11.6595 40.0148 12.2683C38.2044 13.198 36.6385 14.465 35.1797 15.8752C32.6453 18.3251 30.5246 21.113 28.6374 24.0891C27.4334 25.9879 26.3565 27.9577 25.4254 30.008C25.3887 30.0888 25.3497 30.1686 25.3168 30.2383C25.0748 30.0061 24.8267 29.7908 24.6044 29.5512C22.2755 27.0403 20.0097 24.4732 17.8568 21.8059C17.6619 21.5644 17.4869 21.3065 17.3051 21.0545C17.2109 20.9241 17.2077 20.7921 17.2901 20.6478C19.5522 16.6869 22.4412 13.3006 26.2271 10.7465C27.9932 9.55499 29.9032 8.6803 31.9897 8.23057C33.4721 7.91108 34.9671 7.82605 36.4719 8.03254C37.5526 8.18084 38.6382 8.09143 39.7211 8.12556C41.5051 8.18179 43.2905 8.21322 45.0725 8.30986C46.9989 8.41434 48.8699 8.86078 50.7188 9.39537C52.3996 9.8814 54.0066 10.5486 55.5115 11.4554C57.8696 12.8762 59.7493 14.7915 61.1858 17.143C61.732 18.037 62.189 18.9868 62.6786 19.9156C62.7511 20.053 62.8014 20.1174 62.9822 20.0828C63.9925 19.8893 65.0069 19.7168 66.02 19.5379C66.0598 19.5309 66.1009 19.5316 66.1875 19.5253Z" fill="#95A0B3"/>
<path fill-rule="evenodd" clip-rule="evenodd" d="M41.4865 39.1657C37.9774 39.1657 34.4683 39.1716 30.9593 39.1623C29.8265 39.1593 28.7663 38.8437 27.7767 38.2913C27.5008 38.1373 27.2355 37.9633 26.9683 37.7938C26.6751 37.6078 26.6761 37.4116 26.9666 37.2294C26.984 37.2185 27.0024 37.2089 27.0202 37.1986C27.4552 36.9473 27.4771 36.9367 27.2629 36.4881C26.9207 35.7711 26.5561 35.0643 26.1809 34.3642C25.9972 34.0216 25.661 33.8627 25.3027 33.7587C25.1447 33.7128 24.9783 33.6906 24.827 33.6294C24.7442 33.596 24.6848 33.5036 24.6149 33.4377C24.6991 33.3949 24.7833 33.315 24.8676 33.3148C25.8564 33.3121 26.8453 33.3116 27.8338 33.3318C28.3257 33.3419 28.8175 33.3874 29.3077 33.4352C29.4535 33.4495 29.6068 33.5038 29.7317 33.581C29.8247 33.6385 29.9488 33.7787 29.9323 33.8534C29.9033 33.9837 29.7992 34.1281 29.6854 34.2C29.5518 34.2844 29.3723 34.2918 29.2161 34.343C28.9035 34.4454 28.8526 34.6123 29.0592 34.8639C29.5091 35.4117 30.0282 35.8913 30.6135 36.2791C30.8582 36.4412 31.1887 36.4799 31.4861 36.5482C31.6297 36.5812 31.7869 36.5523 31.938 36.5523C38.5716 36.5528 45.2051 36.5539 51.8387 36.5532C52.4707 36.5532 53.0422 36.7203 53.5392 37.1278C53.8375 37.3724 54.1525 37.5965 54.4459 37.8468C54.7084 38.0707 54.6814 38.3085 54.3953 38.505C53.6948 38.9861 52.9104 39.1659 52.0754 39.1658C48.5458 39.1655 45.0161 39.1657 41.4865 39.1657Z" fill="#95A0B3"/>
<path fill-rule="evenodd" clip-rule="evenodd" d="M52.1852 42.7159H50.9794C51.0685 42.3836 51.1463 42.0938 51.2272 41.7923H51.4439C52.9402 41.7923 54.4364 41.7921 55.9327 41.7925C56.2639 41.7926 56.4159 41.8812 56.4471 42.088C56.4807 42.3105 56.3193 42.5467 56.052 42.6138C55.6821 42.7067 55.488 42.9149 55.3884 43.3031C54.7304 45.8687 54.0479 48.4279 53.3743 50.9894C53.3515 51.0762 53.3365 51.1652 53.3214 51.2538C53.2873 51.4526 53.3605 51.5832 53.5513 51.6609C53.6854 51.7155 53.8582 51.7571 53.8436 51.9592C53.8274 52.1825 53.7554 52.3881 53.5392 52.4886C53.431 52.539 53.3024 52.5665 53.1829 52.5671C51.9268 52.5725 50.6708 52.5706 49.4147 52.5703C49.2218 52.5703 49.0334 52.5503 48.9672 52.3246C48.9103 52.1304 49.0385 51.8683 49.2301 51.7632C49.2841 51.7336 49.3397 51.6995 49.3986 51.6877C49.7679 51.6143 49.9275 51.3815 50.0214 51.0164C50.7196 48.3041 51.4382 45.5972 52.1499 42.8885C52.1602 42.8493 52.1663 42.8091 52.1852 42.7159Z" fill="#95A0B3"/>
<path fill-rule="evenodd" clip-rule="evenodd" d="M35.1629 52.5705C34.5452 52.5705 33.9275 52.5712 33.3098 52.5702C33.0353 52.5697 32.8896 52.4824 32.8569 52.3044C32.8181 52.0938 32.9584 51.8306 33.1582 51.7418C33.1956 51.7251 33.2346 51.7107 33.2741 51.7C33.6054 51.6097 33.7837 51.3891 33.869 51.0551C34.2367 49.6146 34.6157 48.177 34.9907 46.7384C35.2942 45.5742 35.5992 44.4103 35.9005 43.2454C36.0002 42.8603 35.982 42.825 35.6485 42.6309C35.3974 42.4846 35.3588 42.1866 35.5981 41.9856C35.7199 41.8833 35.9037 41.8061 36.0604 41.8043C37.3299 41.79 38.5997 41.7954 39.8693 41.7972C40.0611 41.7974 40.2241 41.8609 40.2874 42.0656C40.3398 42.2351 40.2252 42.4711 40.0422 42.5716C39.9524 42.621 39.8571 42.666 39.7588 42.6927C39.4714 42.771 39.3389 42.9777 39.2682 43.2504C39.0113 44.241 38.7501 45.2305 38.4915 46.2207C38.0684 47.8398 37.6461 49.4591 37.2234 51.0783C37.1226 51.4642 37.1312 51.4853 37.4752 51.6886C37.774 51.8652 37.8076 52.1792 37.5221 52.3825C37.3802 52.4835 37.1879 52.5563 37.0157 52.5622C36.3987 52.5834 35.7806 52.5705 35.1629 52.5705Z" fill="#95A0B3"/>
<path fill-rule="evenodd" clip-rule="evenodd" d="M50.674 41.7982C50.4867 42.5201 50.3058 43.2159 50.1254 43.9118C49.4989 46.3294 48.872 48.747 48.2465 51.165C48.1617 51.4928 48.1782 51.5204 48.4821 51.6513C48.8013 51.7889 48.8828 52.0817 48.6333 52.3236C48.5061 52.4469 48.3042 52.5572 48.1344 52.5598C46.8643 52.5793 45.5938 52.5705 44.3235 52.57C44.1326 52.5699 43.9644 52.5175 43.8941 52.3173C43.8313 52.1386 43.9492 51.8638 44.1336 51.7661C44.2538 51.7025 44.3867 51.6619 44.5162 51.6179C44.7162 51.5499 44.8251 51.4143 44.8786 51.2064C45.3149 49.5114 45.7574 47.818 46.1979 46.124C46.4503 45.1531 46.7027 44.1823 46.9543 43.2111C47.044 42.865 47.0011 42.7759 46.6804 42.6279C46.4529 42.5229 46.4078 42.417 46.5008 42.1838C46.594 41.95 46.7689 41.8031 47.0174 41.8016C48.225 41.7942 49.4328 41.7982 50.674 41.7982Z" fill="#95A0B3"/>
<path fill-rule="evenodd" clip-rule="evenodd" d="M32.0465 41.8005C31.8494 42.5574 31.6605 43.2867 31.4696 44.0155C30.8474 46.3908 30.2244 48.7659 29.6019 51.1412C29.518 51.4614 29.5327 51.496 29.8211 51.6758C30.1834 51.9016 30.1751 52.269 29.792 52.4694C29.6751 52.5305 29.531 52.5655 29.3991 52.5663C28.1634 52.5734 26.9276 52.5712 25.6919 52.5699C25.431 52.5697 25.2883 52.4789 25.2401 52.2937C25.1899 52.1009 25.2931 51.8935 25.5007 51.78C25.585 51.7339 25.6702 51.6818 25.7615 51.6583C26.0758 51.5775 26.2088 51.3528 26.2852 51.0565C26.8345 48.9267 27.3897 46.7984 27.9428 44.6696C28.1777 43.7659 28.4121 42.8619 28.6474 41.9583C28.6611 41.9059 28.6815 41.8553 28.6999 41.8005H32.0465Z" fill="#95A0B3"/>
<path fill-rule="evenodd" clip-rule="evenodd" d="M40.2508 52.5705C39.6534 52.5705 39.056 52.5725 38.4587 52.5694C38.259 52.5684 38.0464 52.5711 37.9555 52.3374C37.8822 52.1487 38.0061 51.8929 38.23 51.7413C38.304 51.6911 38.3815 51.6462 38.4578 51.5996C38.6646 51.473 38.7527 51.2976 38.7366 51.045C38.6698 50.0003 38.6048 48.9552 38.5624 47.9093C38.5461 47.5042 38.6897 47.1358 38.9718 46.8324C39.7944 45.9479 40.6262 45.0716 41.4306 44.1704C41.6405 43.9352 41.795 43.6343 41.9179 43.3394C42.0366 43.0547 41.9749 42.9564 41.727 42.7772C41.6488 42.7208 41.5681 42.6681 41.4895 42.6123C41.1989 42.4061 41.2118 42.0611 41.5274 41.8831C41.6246 41.8283 41.7482 41.7974 41.8599 41.7967C42.7524 41.7909 43.645 41.793 44.5376 41.7981C44.7067 41.7991 44.9081 41.7853 44.9801 41.985C45.0572 42.1985 44.9868 42.3991 44.8138 42.546C44.7207 42.6252 44.6161 42.7026 44.5034 42.7443C43.3846 43.1582 42.5895 43.99 41.8204 44.8551C41.7772 44.9037 41.7505 44.991 41.7562 45.0568C41.9099 46.8312 42.0691 48.6052 42.2265 50.3793C42.2492 50.6347 42.276 50.8903 42.2843 51.1464C42.2915 51.3727 42.3805 51.542 42.5599 51.6731C42.6942 51.7714 42.791 51.8904 42.7343 52.0785C42.6731 52.281 42.6173 52.4865 42.3681 52.5292C42.2538 52.5487 42.1376 52.568 42.0222 52.5687C41.4317 52.5727 40.8413 52.5705 40.2508 52.5705Z" fill="#95A0B3"/>
<mask id="mask0_0_312" style="mask-type:luminance" maskUnits="userSpaceOnUse" x="0" y="38" width="5" height="6">
<path d="M0 38.564V43.0583H4.27635V38.564H0H0Z" fill="white"/>
</mask>
<g mask="url(#mask0_0_312)">
<path fill-rule="evenodd" clip-rule="evenodd" d="M3.32801 40.4182H4.25716C4.26041 40.4352 4.26367 40.4522 4.26693 40.4693C3.95726 40.5785 3.64764 40.6877 3.28931 40.814C3.65011 40.9316 3.96324 41.0338 4.27636 41.1359L4.26944 41.184H3.27295C3.53045 41.4282 3.7446 41.6313 3.95875 41.8344C3.9402 41.8602 3.92166 41.8861 3.90312 41.912C3.58064 41.8053 3.2582 41.6986 2.8953 41.5785C3.0087 41.9446 3.11106 42.275 3.21341 42.6055C3.19685 42.6166 3.18028 42.6278 3.16372 42.639C2.95971 42.4112 2.75569 42.1836 2.51876 41.9191C2.37499 42.3254 2.25405 42.6672 2.11568 43.0583C1.98992 42.6707 1.87846 42.327 1.75323 41.9409C1.52446 42.1915 1.31748 42.4182 1.11054 42.6449C1.08891 42.631 1.06728 42.6171 1.04564 42.6032C1.14887 42.2758 1.25213 41.9485 1.36928 41.5771C1.0128 41.6978 0.688223 41.8077 0.363643 41.9176C0.354042 41.9043 0.3444 41.891 0.334799 41.8778C0.538604 41.6647 0.742409 41.4516 0.987296 41.1955H0.00935377C0.00622211 41.1757 0.00313166 41.1559 0 41.1361C0.305831 41.0345 0.611662 40.9328 0.9683 40.8143C0.617019 40.6887 0.31193 40.5797 0.00679899 40.4706C0.00745829 40.4569 0.00811759 40.4432 0.00877688 40.4295H0.977654C0.726709 40.1919 0.5166 39.9929 0.30649 39.7939C0.324127 39.7685 0.341763 39.743 0.359399 39.7175C0.683484 39.8183 1.00757 39.919 1.36792 40.0311C1.25386 39.6716 1.15097 39.3475 1.04808 39.0234C1.06196 39.012 1.07581 39.0007 1.08965 38.9893C1.30549 39.201 1.52133 39.4127 1.75698 39.6439C1.87805 39.2798 1.98976 38.944 2.11614 38.564C2.25339 38.9554 2.37351 39.2981 2.49948 39.6573C2.72673 39.4252 2.94026 39.2071 3.15374 38.989C3.1715 38.999 3.18922 39.0091 3.20698 39.0191C3.10932 39.3398 3.01167 39.6605 2.89934 40.0293C3.25758 39.9188 3.57829 39.8197 3.90069 39.7203C3.69474 39.9324 3.49378 40.1393 3.29286 40.3462C3.30456 40.3702 3.3163 40.3942 3.32801 40.4182Z" fill="#95A0B3"/>
</g>
<mask id="mask1_0_312" style="mask-type:luminance" maskUnits="userSpaceOnUse" x="77" y="38" width="5" height="6">
<path d="M81.9903 43.2667V38.7722H77.7134V43.2667H81.9903Z" fill="white"/>
</mask>
<g mask="url(#mask1_0_312)">
<path fill-rule="evenodd" clip-rule="evenodd" d="M80.2393 42.1293C80.0964 42.5331 79.9753 42.8755 79.8369 43.2667C79.712 42.881 79.6012 42.5389 79.4781 42.1589C79.2524 42.4065 79.0433 42.6358 78.8342 42.8651C78.8092 42.8472 78.7842 42.8293 78.7592 42.8114C78.8648 42.4841 78.9703 42.1567 79.0893 41.7876C78.7301 41.9064 78.4007 42.0154 78.0712 42.1244C78.058 42.1054 78.0449 42.0864 78.0317 42.0673C78.2532 41.8749 78.4747 41.6825 78.6962 41.4901C78.6811 41.4639 78.6659 41.4377 78.6507 41.4115H77.7265C77.7221 41.3889 77.7177 41.3662 77.7134 41.3436C78.019 41.2396 78.3247 41.1357 78.6825 41.0139C78.3278 40.8904 78.0229 40.7842 77.718 40.6779C77.7205 40.6639 77.7231 40.6498 77.7257 40.6357H78.6356C78.6459 40.6194 78.6562 40.603 78.6665 40.5867C78.4597 40.3786 78.2528 40.1706 78.046 39.9626C78.0544 39.9494 78.0628 39.9363 78.0712 39.9231C78.3953 40.0245 78.7194 40.1259 79.0878 40.2411C78.9721 39.8834 78.8664 39.5564 78.7607 39.2294C78.7745 39.2186 78.7884 39.2078 78.8022 39.197C79.0202 39.4085 79.2382 39.6199 79.4778 39.8523C79.5979 39.4907 79.7099 39.1537 79.8367 38.7722C79.9737 39.1616 80.0957 39.5078 80.2277 39.8828C80.473 39.6496 80.6936 39.4399 80.9253 39.2197C80.8261 39.5474 80.729 39.8683 80.6172 40.2377C80.9781 40.1267 81.304 40.0265 81.63 39.9262L81.6533 39.961C81.4433 40.1685 81.2334 40.376 80.9822 40.6243H81.9702C81.9738 40.6425 81.9774 40.6606 81.981 40.6788C81.6711 40.7842 81.3613 40.8896 80.9977 41.0132C81.3663 41.1363 81.6783 41.2405 81.9903 41.3446C81.9878 41.3607 81.9854 41.3768 81.9829 41.3928H80.9793C81.2351 41.6554 81.4456 41.8716 81.6561 42.0877C81.648 42.1002 81.6399 42.1128 81.6318 42.1253C81.3098 42.0173 80.9879 41.9091 80.6167 41.7845C80.7268 42.1502 80.8262 42.4807 80.9257 42.8111C80.9146 42.8181 80.9034 42.8252 80.8923 42.8323C80.6858 42.61 80.4794 42.3877 80.2393 42.1293Z" fill="#95A0B3"/>
</g>
<path fill-rule="evenodd" clip-rule="evenodd" d="M26.1487 41.7996H28.1445C28.0739 42.0695 28.0075 42.3278 27.9376 42.5851C27.9294 42.6153 27.9077 42.6481 27.8828 42.6664C27.1123 43.2298 26.6797 44.0316 26.3438 44.8991C26.2323 45.1869 26.0805 45.4294 25.7909 45.5623C25.6402 45.6314 25.475 45.6466 25.3744 45.5176C25.3013 45.424 25.2543 45.2564 25.2823 45.1438C25.5595 44.0313 25.8547 42.9235 26.1487 41.7996Z" fill="#95A0B3"/>
<path fill-rule="evenodd" clip-rule="evenodd" d="M34.5649 41.7931C34.4286 42.3239 34.298 42.8317 34.1678 43.3397C34.015 43.9359 33.861 44.5318 33.7111 45.1288C33.6624 45.3227 33.56 45.4663 33.3771 45.5491C33.0651 45.6905 32.7852 45.5337 32.7689 45.1839C32.7597 44.9863 32.8047 44.786 32.8275 44.5872C32.8777 44.1508 32.9026 43.7128 32.7581 43.2911C32.6943 43.1048 32.5703 42.9403 32.487 42.7597C32.4478 42.675 32.4117 42.571 32.4246 42.4833C32.4528 42.2927 32.5069 42.1049 32.5647 41.9204C32.5807 41.8697 32.6467 41.7991 32.6905 41.7985C33.307 41.7906 33.9237 41.7931 34.5649 41.7931Z" fill="#95A0B3"/>
<path fill-rule="evenodd" clip-rule="evenodd" d="M41.1189 3.13286C41.1796 3.10739 41.2385 3.06784 41.3016 3.05919C41.4625 3.03713 41.5561 2.95871 41.5523 2.78947C41.5387 2.183 41.5224 1.57656 41.464 0.956888C41.412 1.02561 41.3586 1.09324 41.3083 1.16317C40.9699 1.63421 40.6316 2.10537 40.2942 2.57716C40.0862 2.86797 40.1675 3.05207 40.5156 3.09273C40.5576 3.09765 40.5953 3.13885 40.635 3.16324C40.5936 3.18817 40.5531 3.23279 40.5106 3.235C40.1406 3.2544 39.7703 3.26834 39.3999 3.27712C39.3596 3.27808 39.3184 3.23616 39.2776 3.21415C39.3166 3.18676 39.3539 3.13881 39.3949 3.13531C39.6191 3.11621 39.7036 2.99322 39.6947 2.77516C39.6647 2.0342 39.6376 1.29315 39.6135 0.551987C39.607 0.353241 39.5028 0.2665 39.3188 0.251641C39.2671 0.247479 39.2156 0.238821 39.1487 0.180842C39.1981 0.156992 39.2467 0.114371 39.297 0.112248C39.6741 0.0965565 40.0514 0.0871082 40.4287 0.081406C40.4652 0.0808649 40.5022 0.119365 40.5389 0.13976C40.5051 0.163277 40.4741 0.199738 40.4369 0.208312C40.1408 0.276489 40.1033 0.306249 40.1102 0.607636C40.1233 1.17545 40.1509 1.74288 40.1744 2.36197C40.2394 2.28709 40.2792 2.24805 40.3113 2.20343C40.6699 1.70434 41.0278 1.20475 41.3849 0.704574C41.5786 0.433239 41.4908 0.232412 41.1665 0.189582C41.1107 0.182215 41.059 0.142799 41.0055 0.1182C41.0125 0.0922278 41.0195 0.0662555 41.0265 0.0402832H42.39C42.398 0.0511882 42.406 0.0620516 42.4141 0.0729151C42.3617 0.10151 42.3114 0.1495 42.2567 0.155202C42.0508 0.176596 41.9712 0.291016 41.9786 0.490012C42.0063 1.23101 42.0338 1.97206 42.0573 2.71322C42.0638 2.91626 42.1557 3.01811 42.3588 3.02593C42.4132 3.02805 42.4665 3.06131 42.5203 3.08025C42.5164 3.10755 42.5125 3.13486 42.5085 3.16216H41.1414C41.1339 3.15242 41.1264 3.14264 41.1189 3.13286Z" fill="#95A0B3"/>
<path fill-rule="evenodd" clip-rule="evenodd" d="M45.8969 0.25C46.3412 0.338864 46.7855 0.427727 47.2299 0.516591C47.2272 0.547183 47.2246 0.577775 47.2219 0.608368C47.1625 0.613487 47.1021 0.627888 47.0436 0.622061C46.8588 0.603623 46.7579 0.691529 46.7225 0.867175C46.6051 1.44947 46.4888 2.03197 46.4108 2.64311C46.4593 2.60353 46.5089 2.56536 46.5559 2.5242C46.997 2.13824 47.4342 1.74757 47.8806 1.36806C48.0128 1.25564 48.1236 1.12673 48.0495 0.965861C48.0054 0.870296 47.8575 0.823263 47.7554 0.755627C47.7344 0.741684 47.7098 0.733193 47.6823 0.667055C47.7412 0.656982 47.8031 0.629845 47.8587 0.639626C48.2166 0.702559 48.5735 0.771485 48.9295 0.84474C48.9722 0.853481 49.0072 0.900015 49.0458 0.929067C48.9983 0.950544 48.9475 0.995704 48.9039 0.989503C48.6757 0.956871 48.5774 1.073 48.5378 1.28028C48.404 1.98053 48.262 2.6792 48.1338 3.38045C48.0807 3.6706 48.0949 3.67559 48.5242 3.88566C48.4601 3.917 48.4161 3.95925 48.3807 3.95276C47.9581 3.87526 47.5366 3.79056 47.1149 3.70773C47.1142 3.67972 47.1134 3.6517 47.1126 3.62369C47.1857 3.61395 47.2591 3.59431 47.3318 3.59664C47.4709 3.60109 47.5789 3.56534 47.6107 3.41333C47.7364 2.81268 47.86 2.21157 47.9436 1.5877C47.8356 1.68027 47.7268 1.77192 47.6197 1.86553C47.2252 2.21049 46.8304 2.55504 46.4374 2.9018C46.1662 3.14121 46.2031 3.33204 46.5371 3.45558C46.5838 3.47285 46.6199 3.51934 46.661 3.55231C46.6505 3.57212 46.64 3.59193 46.6294 3.61175C46.2091 3.53021 45.7884 3.44992 45.3688 3.36426C45.3415 3.35868 45.3224 3.3119 45.2994 3.28426C45.3298 3.26516 45.3594 3.23099 45.3906 3.22924C45.7565 3.20859 45.7616 3.21092 45.8346 2.84173C45.966 2.17628 46.0917 1.50961 46.2176 0.843034C46.2705 0.56275 46.2405 0.517465 45.9742 0.41241C45.9296 0.394845 45.8954 0.350684 45.8563 0.318802L45.8969 0.25Z" fill="#95A0B3"/>
<path fill-rule="evenodd" clip-rule="evenodd" d="M59.6676 6.26867C59.7666 6.33635 59.8477 6.3992 59.9356 6.4501C60.048 6.5152 60.1622 6.57971 60.282 6.62837C60.5532 6.73863 60.7989 6.67245 60.9618 6.4568C61.1229 6.2437 61.1408 5.9307 60.9456 5.73195C60.7776 5.56092 60.555 5.44292 60.3496 5.3129C60.3181 5.29296 60.2209 5.31727 60.2009 5.35019C60.0192 5.64912 59.848 5.9545 59.6676 6.26867ZM58.9061 7.59234C59.1512 7.72828 59.3668 7.87637 59.6032 7.97173C59.8913 8.08794 60.1806 7.98142 60.3298 7.75179C60.4841 7.5143 60.4632 7.22423 60.2671 6.98449C60.0755 6.7504 59.8189 6.61393 59.5457 6.49101C59.5073 6.5522 59.4769 6.59736 59.4498 6.64448C59.2783 6.94249 59.1076 7.24092 58.9061 7.59234ZM59.5764 4.57568C60.1001 4.90071 60.6341 5.21034 61.1436 5.5568C61.4273 5.74968 61.603 6.03908 61.5388 6.41197C61.4718 6.80073 61.2678 6.96047 60.7523 7.05283C60.8167 7.18656 60.9095 7.3143 60.9407 7.4559C61.0729 8.05576 60.4879 8.53667 59.8669 8.34212C59.711 8.29326 59.5581 8.22525 59.4151 8.14525C58.9421 7.88062 58.4742 7.60645 58.0044 7.33599C58.0046 7.31443 58.0048 7.29291 58.005 7.27135C58.0538 7.2666 58.1096 7.24392 58.1504 7.26003C58.4079 7.36171 58.4786 7.34681 58.6178 7.1064C58.9778 6.48502 59.3348 5.86189 59.6872 5.23615C59.8257 4.99024 59.8038 4.92789 59.5838 4.75125C59.5495 4.72369 59.5384 4.66667 59.5165 4.62326C59.5365 4.6074 59.5564 4.59154 59.5764 4.57568Z" fill="#95A0B3"/>
<path fill-rule="evenodd" clip-rule="evenodd" d="M5.24474 24.8621C5.43915 24.4236 5.62013 24.0153 5.81186 23.5828C5.46993 23.4369 5.15038 23.2984 4.82902 23.1644C4.67235 23.099 4.58825 23.1984 4.51099 23.3155C4.47856 23.3646 4.43117 23.4036 4.39058 23.4472L4.32346 23.399C4.50464 22.987 4.68587 22.575 4.86709 22.163C4.89008 22.1623 4.91312 22.1616 4.93611 22.1609C4.94031 22.2114 4.95898 22.266 4.94633 22.3118C4.87578 22.5674 4.8912 22.6287 5.12957 22.738C5.80346 23.0468 6.48208 23.3452 7.15679 23.6524C7.34753 23.7392 7.46802 23.6772 7.56312 23.5036C7.58611 23.4617 7.64726 23.4411 7.6909 23.4107C7.68896 23.4605 7.70116 23.5165 7.68286 23.5591C7.52245 23.9324 7.35659 24.3034 7.19235 24.675C7.17323 24.6765 7.15407 24.678 7.13491 24.6795C7.12621 24.6302 7.10124 24.5771 7.11154 24.5322C7.17483 24.2568 7.16342 24.2119 6.91581 24.0913C6.62626 23.9503 6.33081 23.8217 6.00858 23.6743C5.82344 24.0984 5.64296 24.5118 5.44731 24.96C5.8112 25.1153 6.15379 25.289 6.5155 25.3976C6.61204 25.4265 6.76718 25.2562 6.9208 25.1618C6.92035 25.1595 6.95063 25.2159 6.93514 25.2526C6.78478 25.6091 6.62873 25.9633 6.46811 26.3152C6.45068 26.3535 6.3941 26.3736 6.32113 26.3693C6.33543 26.3181 6.3449 26.2649 6.36493 26.2161C6.43741 26.04 6.37614 25.9155 6.21482 25.8423C5.51464 25.5249 4.81439 25.2077 4.11018 24.8997C3.91507 24.8144 3.84765 24.8675 3.65094 25.2262C3.62555 25.1306 3.58863 25.0722 3.60384 25.0362C3.75432 24.6798 3.91144 24.326 4.07297 23.9745C4.09077 23.9357 4.14792 23.9153 4.18686 23.8864C4.19972 23.898 4.21257 23.9096 4.22547 23.9213C4.20582 23.9836 4.18179 24.0449 4.16741 24.1084C4.13515 24.2509 4.16152 24.3712 4.30739 24.4374C4.61235 24.5759 4.91749 24.7139 5.24474 24.8621Z" fill="#95A0B3"/>
<path fill-rule="evenodd" clip-rule="evenodd" d="M70.7959 63.5924C70.7959 63.5438 70.777 63.4831 70.7988 63.4484C71.0046 63.1208 71.2159 62.7967 71.4302 62.4746C71.4508 62.4436 71.5021 62.4335 71.5392 62.4137C71.5405 62.4556 71.5553 62.5031 71.5409 62.5386C71.4232 62.83 71.4317 62.8693 71.6941 63.0445C71.9343 63.2049 72.1775 63.3608 72.4456 63.5357C72.6934 63.151 72.9381 62.7709 73.1969 62.3692C72.8887 62.171 72.596 61.968 72.2865 61.7956C72.2204 61.7589 72.0875 61.8199 71.9972 61.8618C71.9426 61.8872 71.9107 61.9626 71.8148 62.0057C71.8183 61.9544 71.8041 61.892 71.828 61.8536C72.0285 61.5309 72.2342 61.2113 72.4444 60.8949C72.4655 60.863 72.5259 60.8577 72.5682 60.8401C72.5652 60.8815 72.5735 60.9283 72.5573 60.9636C72.4357 61.228 72.4451 61.281 72.6848 61.4404C73.2636 61.8251 73.8429 62.2089 74.4257 62.5875C74.7356 62.7889 74.7863 62.7742 75.0359 62.4382C75.0581 62.4985 75.0993 62.5565 75.085 62.5795C74.8573 62.947 74.6224 63.3101 74.3892 63.6742C74.363 63.6641 74.3369 63.6539 74.3107 63.6438C74.3281 63.5821 74.3353 63.5149 74.3647 63.4598C74.4429 63.3132 74.423 63.1899 74.2879 63.0973C73.9938 62.8957 73.6961 62.6996 73.3798 62.4879C73.1252 62.8868 72.8818 63.2681 72.6268 63.6677C72.9469 63.8726 73.252 64.0696 73.5591 64.2636C73.7006 64.3529 73.8038 64.279 73.9 64.175C73.9438 64.1277 73.9961 64.0885 74.0446 64.0456C74.0664 64.0644 74.0882 64.0831 74.11 64.1018C73.8662 64.4853 73.6224 64.8688 73.3787 65.2523C73.3566 65.2494 73.3345 65.2465 73.3124 65.2436C73.3154 65.191 73.3001 65.1266 73.3246 65.088C73.4406 64.9053 73.4091 64.7625 73.2319 64.6468C72.5925 64.2293 71.9547 63.8092 71.3129 63.3954C71.0753 63.2422 70.9709 63.4457 70.8534 63.6008C70.8342 63.5981 70.8151 63.5952 70.7959 63.5924Z" fill="#95A0B3"/>
<path fill-rule="evenodd" clip-rule="evenodd" d="M52.0336 4.82627C51.9674 4.86335 51.926 4.9066 51.8986 4.8989C51.4839 4.78281 51.0711 4.66007 50.6578 4.53887L50.6524 4.4756C50.7018 4.46382 50.7534 4.43618 50.8002 4.44293C51.0518 4.47901 51.1187 4.44871 51.1962 4.20277C51.2956 3.88698 51.3815 3.56682 51.4801 3.22481C51.0367 3.09561 50.6059 2.97008 50.1469 2.83631C50.0469 3.21024 49.9454 3.56761 49.8574 3.92835C49.8152 4.10125 49.9395 4.17247 50.0747 4.23086C50.1169 4.24913 50.1478 4.29434 50.1838 4.32722C50.1314 4.33929 50.0735 4.37254 50.0276 4.36014C49.6769 4.2652 49.328 4.16331 48.9802 4.05771C48.9389 4.04518 48.9081 3.9974 48.8724 3.96594C48.9164 3.95054 48.9616 3.9189 49.004 3.92236C49.2913 3.94583 49.3312 3.92823 49.4129 3.64536C49.6164 2.94103 49.8114 2.23416 50.0131 1.52933C50.0673 1.34003 50.0026 1.22403 49.8261 1.15281C49.7737 1.13163 49.7319 1.0833 49.6852 1.04743C49.6978 1.0247 49.7104 1.00197 49.7229 0.979248C50.1281 1.096 50.5335 1.21158 50.9376 1.33191C50.9664 1.34049 50.985 1.38407 51.0084 1.41137C50.9765 1.42823 50.9451 1.4589 50.9128 1.45986C50.5401 1.47056 50.5388 1.46902 50.4337 1.83434C50.3612 2.08636 50.2926 2.33959 50.2148 2.61916C50.6564 2.74832 51.0875 2.87439 51.5439 3.00792C51.6398 2.6503 51.7429 2.30716 51.8164 1.95766C51.8314 1.88599 51.7488 1.7781 51.6864 1.71022C51.6404 1.66023 51.554 1.64824 51.4381 1.59929C51.5093 1.55942 51.5533 1.51347 51.5825 1.52163C51.9966 1.63725 52.4087 1.76021 52.8213 1.88137L52.8218 1.94855C52.7705 1.95695 52.7172 1.97893 52.6683 1.97148C52.4156 1.93302 52.3538 1.96033 52.2789 2.21705C52.0699 2.93404 51.8666 3.65277 51.6671 4.37254C51.6022 4.60654 51.6374 4.64534 52.0336 4.82627Z" fill="#95A0B3"/>
<path fill-rule="evenodd" clip-rule="evenodd" d="M17.9806 7.29908C18.3189 7.05134 18.6558 6.80173 18.9976 6.55903C19.0302 6.53585 19.093 6.55591 19.1924 6.55591C18.8371 6.87178 18.8313 6.90733 19.0745 7.24742C19.4521 7.77548 19.8312 8.30246 20.2133 8.82719C20.4518 9.15468 20.4917 9.16071 20.8775 8.94007C20.8607 9.01832 20.8664 9.08251 20.8395 9.10303C20.5274 9.3409 20.2117 9.57402 19.8926 9.80228C19.8617 9.82438 19.8018 9.80523 19.7235 9.80523C20.0528 9.44466 20.0531 9.44449 19.7796 9.06486C19.6226 8.84692 19.4648 8.62961 19.2941 8.39357C19.1035 8.53188 18.9212 8.6632 18.74 8.79614C18.5579 8.92975 18.3769 9.06494 18.1791 9.21154C18.4042 9.51933 18.617 9.81468 18.8348 10.1062C18.9405 10.2476 19.0696 10.2136 19.2025 10.1435C19.2536 10.1165 19.3133 10.1062 19.369 10.0883C19.3791 10.1107 19.3892 10.1331 19.3992 10.1556C19.3425 10.2006 19.2871 10.2473 19.229 10.2903C18.9522 10.495 18.6757 10.7002 18.396 10.9006C18.3654 10.9225 18.3143 10.9152 18.2727 10.9215C18.2832 10.8813 18.2817 10.8304 18.3061 10.8025C18.5177 10.5604 18.5258 10.5339 18.3419 10.276C17.933 9.70243 17.5213 9.13079 17.1052 8.56256C16.9314 8.32531 16.8798 8.32165 16.6257 8.45567C16.591 8.47399 16.5443 8.46904 16.5031 8.47486C16.5208 8.43091 16.5259 8.36989 16.5581 8.34558C16.8605 8.1177 17.1662 7.89415 17.475 7.67522C17.5114 7.64937 17.5723 7.65873 17.6219 7.65174L17.6349 7.70872C17.5843 7.75238 17.5112 7.78656 17.4881 7.84195C17.4499 7.93386 17.394 8.07017 17.4327 8.13406C17.6172 8.43915 17.831 8.72614 18.0471 9.03789C18.4267 8.75777 18.7844 8.49388 19.1684 8.21048C18.9475 7.91163 18.7416 7.61986 18.5208 7.34007C18.4108 7.20081 18.2759 7.27323 18.1484 7.3367C18.1038 7.35889 18.0473 7.35643 17.9962 7.36525C17.991 7.3432 17.9858 7.32114 17.9806 7.29908Z" fill="#95A0B3"/>
<path fill-rule="evenodd" clip-rule="evenodd" d="M71.9121 19.581C71.6385 19.2263 71.3648 18.8715 71.0912 18.5168L71.1245 18.4571C71.1741 18.4798 71.2387 18.4896 71.2708 18.5274C71.4029 18.6831 71.5449 18.7001 71.7022 18.577C72.3472 18.0723 72.9909 17.566 73.6483 17.0499C73.3633 16.6839 73.0885 16.331 72.8066 15.969C72.7574 15.9995 72.7159 16.0199 72.6802 16.0481C72.096 16.5085 71.5115 16.9688 70.9293 17.4318C70.6886 17.6231 70.6836 17.6735 70.8215 17.9509C70.8414 17.9907 70.8243 18.0493 70.8243 18.0991C70.8047 18.1016 70.7852 18.104 70.7656 18.1064C70.4919 17.7523 70.2183 17.3981 69.9445 17.044C69.9508 17.0239 69.957 17.0038 69.9633 16.9837C70.0119 16.998 70.0721 16.9985 70.1073 17.0288C70.3358 17.2249 70.3737 17.2332 70.618 17.0427C71.161 16.6191 71.7013 16.1918 72.2399 15.7624C72.4471 15.5971 72.5309 15.5027 72.3549 15.2414C72.3326 15.2082 72.3402 15.1545 72.3339 15.1104C72.3652 15.089 72.3965 15.0675 72.4278 15.0461C72.4538 15.1008 72.4711 15.1624 72.5071 15.2093C73.0961 15.9758 73.6875 16.7405 74.2783 17.5056C74.2994 17.5329 74.3276 17.558 74.3383 17.5891C74.3492 17.6207 74.3423 17.6584 74.3432 17.6934C74.3085 17.6894 74.2653 17.6975 74.2406 17.6795C73.9342 17.4576 73.9277 17.4547 73.6347 17.6841C73.1304 18.079 72.6261 18.4741 72.1259 18.8742C71.8355 19.1064 71.8382 19.1216 71.9828 19.4525C71.9988 19.4892 71.9751 19.5437 71.9698 19.5899C71.9506 19.5869 71.9314 19.584 71.9121 19.581Z" fill="#95A0B3"/>
<path fill-rule="evenodd" clip-rule="evenodd" d="M8.9624 15.8798C8.9624 15.9319 8.97809 15.9905 8.95984 16.0349C8.8485 16.305 8.85209 16.3544 9.08391 16.5209C9.65948 16.9344 10.2379 17.3438 10.819 17.7494C11.0412 17.9045 11.0796 17.8912 11.3091 17.6781C11.3371 17.6521 11.3855 17.6484 11.4244 17.6344C11.4224 17.676 11.4358 17.7283 11.416 17.7577C11.1812 18.1058 10.9415 18.4505 10.703 18.796C10.6798 18.7909 10.6565 18.7858 10.6333 18.7806C10.6394 18.727 10.6288 18.6629 10.6543 18.6214C10.7606 18.4481 10.7349 18.3061 10.5731 18.1904C9.90783 17.7148 9.24157 17.2407 8.55816 16.7536C8.29403 17.1355 8.04016 17.5026 7.77393 17.8876C7.83154 17.9329 7.88193 17.9759 7.93558 18.0141C8.4959 18.4135 9.05659 18.8122 9.61757 19.2106C9.66797 19.2464 9.72248 19.2764 9.77259 19.3126C9.94269 19.4355 10.09 19.4133 10.2153 19.2446C10.2397 19.2119 10.2612 19.1769 10.284 19.143C10.3098 19.1533 10.3355 19.1637 10.3613 19.174C10.3512 19.2273 10.3566 19.2912 10.3287 19.3322C10.1001 19.6691 9.8653 20.0017 9.57488 20.3319C9.57488 20.2794 9.55873 20.2199 9.57756 20.1755C9.68688 19.9176 9.68523 19.8636 9.46325 19.7037C8.88262 19.2856 8.2956 18.8766 7.71179 18.463C7.544 18.3441 7.3908 18.3198 7.24839 18.5064C7.21959 18.5441 7.15633 18.5551 7.10895 18.5783C7.11859 18.5256 7.1127 18.4621 7.14022 18.4219C7.51466 17.875 7.89368 17.3313 8.2717 16.7869C8.48371 16.4817 8.696 16.1767 8.90817 15.8716C8.92622 15.8743 8.94431 15.8771 8.9624 15.8798Z" fill="#95A0B3"/>
<path fill-rule="evenodd" clip-rule="evenodd" d="M66.1118 10.8382C66.3816 10.5046 66.6357 10.1904 66.8901 9.87582C66.6837 9.60506 66.4614 9.40594 66.1148 9.48944C65.8578 9.55137 65.6947 9.73447 65.6511 9.99103C65.5862 10.3738 65.8302 10.6037 66.1118 10.8382ZM65.793 12.6989C65.469 12.433 65.1437 12.1688 64.8234 11.8986C64.7954 11.875 64.7999 11.8121 64.781 11.7324C65.1805 11.9671 65.2148 11.9607 65.4793 11.6312C65.6349 11.4372 65.7894 11.2424 65.944 11.0476C65.9524 11.037 65.9578 11.0238 65.969 11.004C65.873 10.8456 65.7536 10.799 65.5618 10.8586C65.1231 10.9947 64.676 11.1026 64.2345 11.2296C64.1108 11.2651 64.0191 11.2532 63.9189 11.1622C63.7527 11.0112 63.5701 10.8788 63.3943 10.7386C63.3995 10.7183 63.4047 10.698 63.4099 10.6777C63.4578 10.6777 63.5162 10.6595 63.5518 10.6806C63.8112 10.834 64.0773 10.8055 64.3493 10.7296C64.6974 10.6325 65.0465 10.539 65.3901 10.4453C65.3217 10.2697 65.2296 10.1154 65.203 9.95024C65.1036 9.33273 65.6652 8.89045 66.2606 9.11584C66.4182 9.17548 66.5668 9.27313 66.7017 9.37706C67.029 9.62941 67.3472 9.89392 67.6649 10.1586C67.7027 10.1902 67.7148 10.2534 67.7389 10.3019C67.6876 10.2895 67.6268 10.291 67.5869 10.2625C67.4295 10.1501 67.2912 10.1641 67.1712 10.3129C66.6942 10.9041 66.2182 11.4962 65.7442 12.09C65.6267 12.2371 65.6329 12.3784 65.7792 12.5105C65.8196 12.547 65.839 12.6072 65.868 12.6564C65.8431 12.6706 65.8181 12.6847 65.793 12.6989Z" fill="#95A0B3"/>
<path fill-rule="evenodd" clip-rule="evenodd" d="M16.1141 71.1573C16.3845 71.4414 16.7487 71.5522 17.0141 71.44C17.2357 71.3463 17.4051 71.0934 17.401 70.8513C17.3947 70.4862 17.1411 70.3305 16.8413 70.1867C16.5961 70.514 16.3543 70.8367 16.1141 71.1573ZM16.6507 71.7695C16.6507 72.2746 16.6341 72.7526 16.6609 73.2281C16.6688 73.3701 16.8002 73.504 16.8701 73.644C16.8928 73.6896 16.9002 73.743 16.9145 73.7928C16.8957 73.8029 16.8768 73.813 16.858 73.8232C16.651 73.6654 16.4387 73.5139 16.2409 73.3452C16.1965 73.3073 16.1874 73.2091 16.1877 73.1388C16.1899 72.6604 16.191 72.1817 16.21 71.7038C16.2173 71.5188 16.1462 71.4195 15.9651 71.3579C15.7678 71.6267 15.5667 71.897 15.3699 72.1705C15.2608 72.3221 15.2961 72.4522 15.4362 72.5677C15.4777 72.6019 15.5002 72.6595 15.5314 72.7063C15.511 72.7238 15.4905 72.7413 15.47 72.7587L14.3955 71.9449C14.3984 71.9246 14.4012 71.9043 14.404 71.8841C14.452 71.8868 14.5076 71.8746 14.5468 71.8949C14.7958 72.0235 14.8606 72.0159 15.0307 71.7916C15.4438 71.2469 15.8544 70.7002 16.2635 70.1524C16.4991 69.8371 16.4935 69.7929 16.1582 69.4622C16.2593 69.467 16.3218 69.4502 16.3528 69.4745C16.7706 69.8006 17.2044 70.1099 17.593 70.4691C17.999 70.8445 17.9754 71.3919 17.5901 71.705C17.3719 71.8824 17.1259 71.8901 16.8682 71.8304C16.8088 71.8166 16.7506 71.7977 16.6507 71.7695Z" fill="#95A0B3"/>
<path fill-rule="evenodd" clip-rule="evenodd" d="M49.8594 79.0365C50.0249 78.9775 50.1708 78.9418 50.3015 78.8755C50.6636 78.6918 50.7765 78.3101 50.5824 77.966C50.4114 77.6628 49.9992 77.569 49.6795 77.7655C49.6469 77.7855 49.6092 77.843 49.6155 77.8747C49.6898 78.2513 49.7719 78.6263 49.8594 79.0365ZM50.6581 78.9831C50.8442 79.1548 51.0089 79.3109 51.1782 79.4617C51.3531 79.6176 51.5155 79.7984 51.7148 79.9126C51.8962 80.0165 52.1195 80.0455 52.3244 80.1076C52.3264 80.1295 52.3283 80.1515 52.3303 80.1734C52.0551 80.228 51.7808 80.2883 51.5038 80.3314C51.4607 80.3381 51.4016 80.2706 51.3565 80.2299C51.019 79.9245 50.6832 79.617 50.3466 79.3104C50.1631 79.1432 50.1629 79.1434 49.8907 79.2361C49.971 79.5811 50.0474 79.9303 50.1349 80.2765C50.1797 80.4536 50.3207 80.4507 50.4672 80.4339C50.5101 80.429 50.5571 80.4598 50.6022 80.4742C50.5659 80.5063 50.5341 80.558 50.4927 80.5676C50.1252 80.6526 49.7565 80.7324 49.3867 80.8067C49.3475 80.8146 49.2993 80.7774 49.2409 80.7558C49.2769 80.7167 49.2843 80.7012 49.2955 80.6976C49.6441 80.5836 49.672 80.5329 49.5959 80.1736C49.4538 79.5032 49.3169 78.8317 49.1713 78.1621C49.1032 77.8486 49.0765 77.8366 48.7562 77.8407C48.7157 77.8413 48.6748 77.8138 48.6341 77.7992C48.6357 77.7784 48.6374 77.7575 48.639 77.7367C48.983 77.6619 49.3261 77.5823 49.6715 77.5142C49.8863 77.4718 50.1037 77.4309 50.3216 77.4173C50.7476 77.3908 51.0709 77.5991 51.1813 77.9472C51.3002 78.3223 51.1634 78.6529 50.7869 78.9002C50.7528 78.9225 50.7184 78.9443 50.6581 78.9831Z" fill="#95A0B3"/>
<path fill-rule="evenodd" clip-rule="evenodd" d="M24.9258 3.72726C24.5314 3.79515 24.2816 3.98915 24.2329 4.25225C24.1883 4.49266 24.3163 4.79533 24.5161 4.92224C24.754 5.07333 25.14 5.03308 25.4317 4.81902C25.2654 4.46031 25.098 4.09887 24.9258 3.72726ZM25.6966 6.41723C26.0406 6.19933 26.051 6.16304 25.8703 5.77079C25.7632 5.5385 25.6538 5.30733 25.5445 5.07612C25.5394 5.06534 25.5239 5.05955 25.5127 5.05098C25.3258 5.06829 25.2523 5.18296 25.2218 5.36081C25.1433 5.81787 25.049 6.27209 24.9679 6.72864C24.9452 6.85642 24.8911 6.93659 24.7673 6.98525C24.5887 7.05542 24.4186 7.14741 24.2416 7.22203C24.2092 7.23569 24.161 7.21101 24.1202 7.20401C24.136 7.17046 24.1429 7.12202 24.1692 7.10562C24.4416 6.93634 24.527 6.66584 24.5789 6.37073C24.6399 6.02431 24.711 5.67972 24.7797 5.32448C24.6881 5.32448 24.6153 5.32302 24.5426 5.32473C24.1549 5.33397 23.8644 5.14221 23.7433 4.796C23.6318 4.4775 23.7397 4.10769 24.0426 3.89679C24.2613 3.74458 24.5048 3.627 24.7431 3.50575C25.0001 3.37501 25.2627 3.25489 25.5262 3.13798C25.5729 3.11725 25.6362 3.13502 25.6919 3.13502C25.6934 3.15471 25.6949 3.1744 25.6965 3.19412C25.6435 3.22443 25.5906 3.25468 25.5377 3.28503C25.404 3.36186 25.3566 3.47083 25.4235 3.61647C25.7522 4.33241 26.0802 5.04877 26.4132 5.76268C26.4872 5.92109 26.6148 5.95389 26.776 5.88513C26.823 5.86511 26.8838 5.87826 26.9383 5.87622C26.899 5.92096 26.8683 5.98319 26.8191 6.00758C26.5054 6.16316 26.1884 6.31234 25.8702 6.45847C25.8197 6.48166 25.7576 6.47883 25.7009 6.48803C25.6995 6.46443 25.698 6.44083 25.6966 6.41723Z" fill="#95A0B3"/>
<path fill-rule="evenodd" clip-rule="evenodd" d="M3.71151 52.3381C3.75972 52.7032 4.00333 53.0143 4.27731 53.0758C4.53304 53.1332 4.84208 52.9991 4.97027 52.7752C5.10407 52.5416 5.0489 52.2175 4.82412 51.9464C4.45429 52.0765 4.08113 52.2079 3.71151 52.3381ZM3.47359 52.4181C3.15457 52.5341 2.83234 52.6471 2.51336 52.7686C2.25933 52.8655 2.35517 53.0648 2.41043 53.3166C2.32476 53.2575 2.26234 53.2386 2.24907 53.2016C2.11832 52.8374 1.99347 52.4711 1.87422 52.103C1.86198 52.0653 1.89684 52.012 1.92663 51.9068C1.97571 52.0134 1.99734 52.0546 2.01411 52.0977C2.08058 52.2687 2.20498 52.3355 2.37467 52.2777C3.09495 52.0323 3.81383 51.7827 4.53188 51.5306C4.73116 51.4607 4.78691 51.3184 4.71443 51.1172C4.70285 51.0851 4.73338 51.0375 4.74447 50.9971C4.77656 51.0233 4.82741 51.0435 4.83796 51.0767C5.00307 51.5964 5.19064 52.1112 5.3155 52.6409C5.41765 53.0744 5.22151 53.4119 4.86825 53.5637C4.52649 53.7105 4.18509 53.6016 3.90815 53.2575C3.88268 53.2259 3.85615 53.1951 3.80859 53.1382C3.54113 53.541 3.26731 53.9203 3.03404 54.3235C2.95608 54.4583 2.98435 54.6546 2.95823 54.8219C2.95118 54.8672 2.92275 54.909 2.90416 54.9524C2.87375 54.9238 2.82822 54.9009 2.81545 54.8658C2.74239 54.6645 2.66587 54.4633 2.61535 54.2558C2.59784 54.1838 2.63167 54.0806 2.67584 54.0148C2.93383 53.6308 3.19483 53.2483 3.46996 52.8768C3.57928 52.7291 3.60644 52.601 3.47359 52.4181Z" fill="#95A0B3"/>
<path fill-rule="evenodd" clip-rule="evenodd" d="M33.3897 0.936017C33.3391 0.953997 33.2894 0.975599 33.2376 0.989335C33.0793 1.03133 33.0065 1.13023 33.0353 1.29563C33.092 1.62187 33.1508 1.94773 33.2083 2.27138C33.5419 2.24678 33.7418 2.08533 33.831 1.75419C33.8901 1.53446 33.9215 1.30716 33.9688 1.08398C34.0426 0.736355 34.3369 0.517005 34.6896 0.541396C34.8524 0.552634 34.9476 0.632424 34.9422 0.802867C34.9375 0.950876 34.7938 1.05039 34.6332 1.02634C34.228 0.96561 34.2269 0.965444 34.1614 1.37234C34.1093 1.69646 34.0323 2.01012 33.8346 2.23417C34.1626 2.53032 34.4816 2.82105 34.8037 3.10812C35.0301 3.30973 35.2479 3.53404 35.6164 3.45703C35.5955 3.52309 35.5933 3.56671 35.5707 3.59064C35.5507 3.61191 35.507 3.60891 35.4754 3.62086C35.0291 3.78914 34.6659 3.72358 34.3528 3.31552C34.1542 3.05671 33.8787 2.85559 33.6254 2.64365C33.5407 2.57281 33.4178 2.5485 33.3124 2.50293C33.2941 2.52053 33.2759 2.5381 33.2576 2.55566C33.336 2.91653 33.4045 3.28006 33.5009 3.63589C33.52 3.70598 33.6409 3.76154 33.7259 3.79517C33.7901 3.82052 33.872 3.80021 33.9696 3.84891C33.9259 3.88146 33.8866 3.93078 33.8377 3.94393C33.1854 4.1197 32.6969 4.17598 32.6102 4.09103C32.6156 4.079 32.6182 4.06014 32.6272 4.05615C33.0149 3.88491 33.0178 3.8845 32.9372 3.45633C32.8156 2.8106 32.6929 2.16504 32.564 1.52077C32.5075 1.23886 32.4551 1.14775 32.1529 1.19457C32.1202 1.19961 32.0805 1.15845 32.0441 1.13872C32.0746 1.11041 32.1016 1.06371 32.1364 1.05655C32.5123 0.979345 32.889 0.906132 33.2667 0.838745C33.3085 0.831295 33.3579 0.866757 33.4038 0.882282C33.3991 0.900221 33.3944 0.918119 33.3897 0.936017Z" fill="#95A0B3"/>
<path fill-rule="evenodd" clip-rule="evenodd" d="M58.0274 4.78056C58.0391 4.27247 57.8846 3.98037 57.5248 3.81405C57.1718 3.65089 56.8479 3.72144 56.574 3.97741C56.116 4.4055 55.8745 4.94959 55.8433 5.57492C55.8244 5.95526 55.9772 6.26418 56.3476 6.42343C56.7248 6.58559 57.0721 6.51346 57.349 6.22606C57.764 5.79531 57.9729 5.26009 58.0274 4.78056ZM56.858 6.75233C56.0275 6.752 55.3598 6.0671 55.3666 5.22279C55.3745 4.26074 56.1211 3.469 57.0166 3.47316C57.836 3.47699 58.512 4.18861 58.5052 5.04003C58.4977 5.96188 57.737 6.7527 56.858 6.75233Z" fill="#95A0B3"/>
<path fill-rule="evenodd" clip-rule="evenodd" d="M13.1898 70.2216C13.2038 70.2209 13.2385 70.2218 13.2721 70.2165C13.3195 70.209 13.3689 70.2039 13.4125 70.1857C14.1007 69.8977 14.5775 69.3971 14.7572 68.6695C14.915 68.0309 14.2912 67.4679 13.6761 67.6894C12.998 67.9335 12.537 68.4371 12.3372 69.1351C12.1739 69.7054 12.5985 70.2271 13.1898 70.2216ZM11.9454 69.0376C11.9417 68.1334 12.7283 67.3178 13.6087 67.313C14.4556 67.3084 15.1387 67.9871 15.1357 68.8301C15.1325 69.7376 14.3489 70.5362 13.4578 70.5401C12.6139 70.5439 11.9488 69.8831 11.9454 69.0376Z" fill="#95A0B3"/>
<path fill-rule="evenodd" clip-rule="evenodd" d="M75.494 60.5881C75.6046 60.5713 75.7094 60.5684 75.8061 60.5385C76.4312 60.345 76.5961 59.5363 76.1025 59.0358C75.7145 58.6425 75.2344 58.407 74.6916 58.324C74.313 58.2662 74.0028 58.3987 73.8007 58.7435C73.6068 59.0743 73.6153 59.4219 73.8664 59.73C74.2874 60.2467 74.8447 60.5146 75.494 60.5881ZM76.6502 59.5384C76.6513 60.3643 75.9772 61.0424 75.1548 61.0425C74.2129 61.0427 73.4194 60.281 73.4205 59.3777C73.4215 58.5247 74.0904 57.8614 74.9475 57.8635C75.8683 57.8658 76.649 58.6337 76.6502 59.5384Z" fill="#95A0B3"/>
<path fill-rule="evenodd" clip-rule="evenodd" d="M11.9624 16.4739C12.2194 16.4744 12.4189 16.3704 12.5829 16.1834C12.8674 15.859 12.8996 15.4219 12.6403 15.031C12.3513 14.5956 11.961 14.2698 11.4812 14.0676C11.0699 13.8943 10.7188 13.9769 10.4527 14.2829C10.186 14.5896 10.1499 14.9474 10.3737 15.3406C10.6492 15.8247 11.053 16.1707 11.5656 16.3791C11.6903 16.4298 11.8297 16.4433 11.9624 16.4739ZM13.1141 15.3451C13.1108 16.1693 12.4248 16.8567 11.6149 16.8473C10.7277 16.837 9.92303 16.0258 9.92365 15.1423C9.92426 14.2724 10.5862 13.6163 11.4606 13.6189C12.3465 13.6215 13.1178 14.4267 13.1141 15.3451Z" fill="#95A0B3"/>
<path fill-rule="evenodd" clip-rule="evenodd" d="M56.5411 78.4302C56.4875 78.5182 56.4723 78.5793 56.4365 78.5965C56.1639 78.7267 55.8881 78.8502 55.6109 78.9701C55.5762 78.9851 55.5273 78.9667 55.485 78.9638C55.5095 78.924 55.5248 78.8697 55.5601 78.8468C55.7809 78.7033 55.8112 78.6483 55.7079 78.4073C55.4274 77.7529 55.1387 77.102 54.8491 76.4515C54.7775 76.2907 54.5388 76.2096 54.3088 76.2552C54.2462 76.2676 54.1846 76.2849 54.0928 76.3072C54.1128 76.2386 54.1125 76.198 54.132 76.1821C54.1683 76.1525 54.2194 76.1419 54.2587 76.115C54.6692 75.8332 55.0459 75.8677 55.4776 76.1288C56.0993 76.5048 56.7656 76.8056 57.4119 77.1381C57.4258 77.1167 57.4411 77.1025 57.4384 77.0963C57.2075 76.5638 56.9764 76.0314 56.7424 75.5002C56.6602 75.3135 56.5317 75.2361 56.3289 75.3288C56.2878 75.3476 56.2282 75.3252 56.1753 75.2902C56.5098 75.0988 56.8469 74.943 57.1894 74.8022C57.2013 74.8364 57.2131 74.8705 57.225 74.9046C56.8714 75.1486 56.8703 75.1545 57.0547 75.5721C57.3673 76.2804 57.6805 76.9884 57.9895 77.6983C58.0197 77.7675 58.0221 77.8491 58.0374 77.9249C57.9569 77.9076 57.8685 77.9065 57.7971 77.8707C56.9988 77.4705 56.2033 77.0649 55.4068 76.6611C55.3464 76.6304 55.2849 76.6017 55.187 76.5541C55.2178 76.6425 55.2331 76.698 55.2559 76.75C55.4648 77.2245 55.6743 77.6987 55.885 78.1724C56.0566 78.558 56.0836 78.5702 56.5411 78.4302Z" fill="#95A0B3"/>
<path fill-rule="evenodd" clip-rule="evenodd" d="M7.44549 58.022C7.58065 58.2449 7.72388 58.4635 7.84536 58.6938C7.87643 58.7527 7.85516 58.8545 7.8299 58.9266C7.55341 59.7156 7.27123 60.5026 6.99095 61.2902C6.96824 61.354 6.94801 61.4187 6.91089 61.5303C7.06158 61.4418 7.17559 61.377 7.28747 61.3087C7.63945 61.0937 7.99077 60.8777 8.34209 60.6617C8.67607 60.4564 8.68695 60.4206 8.49344 60.0049C8.58249 60.0412 8.64533 60.0461 8.66552 60.0782C8.83067 60.3413 8.99039 60.608 9.14421 60.8779C9.16284 60.9106 9.13655 60.9693 9.12464 61.0706C9.05768 60.9804 9.02723 60.9452 9.00316 60.9059C8.90011 60.7379 8.76277 60.7113 8.59976 60.8084C8.2868 60.9947 7.97524 61.1834 7.66397 61.3725C7.19463 61.6577 6.72608 61.9441 6.19983 62.2113C6.21306 62.1278 6.21397 62.0398 6.24145 61.9614C6.54061 61.1071 6.84397 60.2543 7.14609 59.401C7.16896 59.3365 7.191 59.2717 7.22891 59.1624C7.14086 59.2079 7.08346 59.2336 7.02997 59.2659C6.5828 59.5358 6.13547 59.8055 5.69003 60.0784C5.38672 60.2641 5.38499 60.2773 5.48973 60.6148C5.49913 60.6451 5.48153 60.684 5.47646 60.7189C5.44329 60.7055 5.3945 60.7019 5.37926 60.6772C5.2125 60.4069 5.04887 60.1346 4.89097 59.8589C4.8744 59.83 4.89995 59.7766 4.9133 59.6829C4.98401 59.7746 5.01772 59.8158 5.04879 59.859C5.14352 59.9907 5.26133 60.0312 5.40509 59.9452C6.04202 59.5645 6.67964 59.1849 7.31297 58.798C7.44706 58.7161 7.47632 58.4379 7.4005 58.221C7.38055 58.164 7.37569 58.1016 7.36395 58.0417C7.3911 58.0351 7.4183 58.0285 7.44549 58.022Z" fill="#95A0B3"/>
<path fill-rule="evenodd" clip-rule="evenodd" d="M60.312 74.7921C60.3329 74.7515 60.3432 74.6927 60.3763 74.6731C60.672 74.4977 60.9708 74.3276 61.2716 74.1612C61.3033 74.1437 61.3536 74.1607 61.3953 74.1617C61.381 74.2004 61.3782 74.2566 61.3507 74.2748C61.1923 74.3796 61.205 74.5131 61.2801 74.6555C61.4283 74.9367 61.5842 75.2139 61.7296 75.4966C61.757 75.5499 61.7796 75.6392 61.7544 75.6815C61.3704 76.3266 60.4396 76.8136 59.7321 76.643C58.9662 76.4584 58.4775 75.8102 58.4804 74.9798C58.4832 74.2038 58.9894 73.5667 59.7439 73.3911C59.895 73.356 60.0471 73.3254 60.2079 73.2907C60.1979 73.2323 60.1849 73.1988 60.1886 73.1673C60.1934 73.1274 60.2118 73.0892 60.2243 73.0503C60.2569 73.0662 60.3023 73.0733 60.32 73.0994C60.4929 73.3549 60.6612 73.6136 60.8307 73.8713C60.8192 73.8889 60.8075 73.9065 60.7959 73.9241C60.7385 73.9 60.673 73.8866 60.6248 73.8501C60.1925 73.522 59.8327 73.4919 59.4079 73.754C59.0124 73.9982 58.8351 74.3971 58.9354 74.9026C59.0437 75.4488 59.3248 75.8917 59.8026 76.1872C60.2905 76.4888 60.8892 76.3694 61.2401 75.915C61.3068 75.8286 61.3247 75.7592 61.2634 75.6573C61.1353 75.4443 61.0228 75.2218 60.9026 75.0039C60.739 74.7073 60.6784 74.687 60.312 74.7921Z" fill="#95A0B3"/>
<path fill-rule="evenodd" clip-rule="evenodd" d="M37.6793 0.456295C37.3721 0.484182 37.094 0.509447 36.7858 0.537417C36.811 0.857367 36.8514 1.16504 36.8556 1.47321C36.8622 1.95661 36.8746 2.44334 36.8277 2.92295C36.7875 3.33318 36.4606 3.59436 36.1025 3.57721C36.0257 3.57351 35.9391 3.54375 35.8778 3.49776C35.7673 3.41485 35.7325 3.29348 35.8098 3.16774C35.8838 3.04732 35.9945 3.04229 36.1166 3.09381C36.3938 3.21073 36.5447 3.16224 36.5853 2.86081C36.6383 2.46648 36.6299 2.06204 36.6259 1.66218C36.6232 1.39991 36.5823 1.13794 36.557 0.875973C36.5292 0.588363 36.4784 0.539706 36.1938 0.503453C36.1475 0.497543 36.1044 0.466201 36.0194 0.428908C36.527 0.274947 38.5016 0.143837 38.5964 0.245187C38.5906 0.256717 38.5872 0.276196 38.5785 0.279068C38.1782 0.409762 38.1694 0.410303 38.2018 0.83743C38.2514 1.49348 38.3105 2.14882 38.3733 2.80371C38.4028 3.11134 38.4314 3.1284 38.7489 3.17714C38.7855 3.1828 38.8172 3.22155 38.8512 3.24499C38.8184 3.27092 38.7875 3.31645 38.7526 3.31974C38.3703 3.35603 37.9875 3.38729 37.6046 3.41505C37.5634 3.41805 37.52 3.3905 37.4715 3.37518C37.4938 3.33106 37.4973 3.31158 37.506 3.30875C37.8956 3.18164 37.9068 3.18093 37.8755 2.76313C37.8187 2.00389 37.7473 1.24583 37.6793 0.456295Z" fill="#95A0B3"/>
<path fill-rule="evenodd" clip-rule="evenodd" d="M77.4269 23.4679C77.2834 23.1865 77.1526 22.93 77.0134 22.6569C76.7773 22.7762 76.5632 22.8982 76.3385 22.9952C75.8734 23.1959 75.4096 23.4038 74.9309 23.5654C74.7573 23.624 74.534 23.5919 74.3491 23.5417C74.1163 23.4785 73.9769 23.2871 73.9374 23.0418C73.9103 22.8735 74.0306 22.7258 74.186 22.7264C74.3473 22.7271 74.4162 22.8178 74.4174 22.9783C74.42 23.3003 74.5278 23.3951 74.8451 23.341C74.9927 23.3159 75.1437 23.2798 75.2788 23.2172C75.7332 23.0066 76.185 22.7894 76.6302 22.5597C76.8917 22.4248 76.8965 22.3792 76.8232 22.0963C76.812 22.0532 76.8331 22.0017 76.8392 21.9541C76.8773 21.9835 76.9314 22.0045 76.9511 22.0434C77.2963 22.7205 77.6383 23.3992 77.9768 24.0796C77.9963 24.1188 77.9813 24.1756 77.9823 24.2241C77.9413 24.2017 77.8878 24.1893 77.8613 24.1554C77.6861 23.931 77.6416 23.9088 77.3789 24.0405C76.7467 24.3576 76.1179 24.6816 75.4919 25.011C75.2517 25.1373 75.2403 25.1969 75.3175 25.4639C75.3293 25.5046 75.3085 25.5548 75.3027 25.6006C75.2645 25.5731 75.21 25.5541 75.1904 25.5166C75.0148 25.1798 74.8439 24.8405 74.6762 24.4996C74.6593 24.4655 74.6727 24.4162 74.6721 24.3739C74.7145 24.3928 74.7761 24.3998 74.7959 24.4325C74.8975 24.5999 75.0168 24.6955 75.2172 24.5932C75.9445 24.2221 76.6723 23.852 77.4269 23.4679Z" fill="#95A0B3"/>
<path fill-rule="evenodd" clip-rule="evenodd" d="M79.9971 50.4176C80.0033 50.3706 80.0104 50.3237 80.0156 50.2766C80.035 50.0982 79.9693 49.9848 79.7845 49.9488C79.1519 49.8254 78.52 49.6983 77.8878 49.573C77.7667 49.549 77.6453 49.5259 77.5239 49.5036C77.3623 49.474 77.2605 49.5354 77.2165 49.7002C77.1995 49.7639 77.1604 49.8215 77.1314 49.8819C77.1038 49.8716 77.0763 49.8613 77.0486 49.851C77.1997 49.0606 77.3508 48.2702 77.5059 47.4583C77.7265 47.4891 77.9347 47.5164 78.1419 47.5497C78.1664 47.5537 78.2072 47.5989 78.2028 47.612C78.1922 47.6433 78.1633 47.6819 78.1342 47.6901C78.0827 47.7047 78.0137 47.6796 77.9729 47.7052C77.8576 47.7772 77.6891 47.8462 77.6558 47.9527C77.5538 48.2792 77.5052 48.6227 77.4323 48.977C77.8245 49.0535 78.1915 49.1251 78.5828 49.2014C78.6308 48.9345 78.6776 48.6845 78.7204 48.4338C78.752 48.2484 78.673 48.1298 78.5 48.063C78.4478 48.0428 78.4064 47.9942 78.36 47.9586C78.3717 47.9362 78.3834 47.9138 78.3951 47.8913C78.7285 47.9565 79.0621 48.02 79.3946 48.0897C79.4226 48.0955 79.4423 48.1424 79.4658 48.1702C79.436 48.1912 79.4086 48.2258 79.3762 48.2313C78.9823 48.2985 78.9813 48.2983 78.9056 48.6903C78.8717 48.8661 78.8369 49.0417 78.7962 49.2494C79.1831 49.3208 79.5573 49.3968 79.9346 49.4512C79.9871 49.4589 80.0938 49.3702 80.1085 49.3095C80.1735 49.041 80.227 48.768 80.2597 48.4936C80.291 48.2316 80.1234 48.0573 79.9491 47.8918C79.8886 47.8344 79.8457 47.758 79.7948 47.6902L79.8462 47.6373C80.069 47.7659 80.2947 47.8899 80.5118 48.0277C80.5467 48.0499 80.564 48.1375 80.5546 48.1883C80.4209 48.9097 80.2825 49.6303 80.14 50.3499C80.1319 50.3907 80.0788 50.4224 80.0466 50.4583C80.0301 50.4448 80.0136 50.4312 79.9971 50.4176Z" fill="#95A0B3"/>
<mask id="mask2_0_312" style="mask-type:luminance" maskUnits="userSpaceOnUse" x="41" y="78" width="4" height="4">
<path d="M41.3759 81.7386H44.0964V78.5317H41.3759V81.7386Z" fill="white"/>
</mask>
<g mask="url(#mask2_0_312)">
<path fill-rule="evenodd" clip-rule="evenodd" d="M42.3102 78.7917V79.9648C42.6178 79.947 42.9057 79.9506 43.1847 79.9019C43.2691 79.8872 43.3329 79.7304 43.3982 79.6333C43.4322 79.5827 43.4488 79.5201 43.4732 79.463C43.4945 79.4689 43.5157 79.4747 43.537 79.4806V80.598C43.5209 80.6062 43.5048 80.6144 43.4888 80.6226C43.4598 80.5615 43.4158 80.5029 43.4049 80.4387C43.3721 80.2449 43.2512 80.1692 43.0731 80.1665C42.8334 80.1629 42.5935 80.1656 42.3508 80.1656C42.3508 80.5735 42.3449 80.9711 42.3589 81.3679C42.3604 81.4126 42.4733 81.4892 42.5349 81.4896C42.8157 81.4915 43.0984 81.4873 43.3769 81.4545C43.6349 81.4242 43.7597 81.2094 43.8848 81.0068C43.9246 80.9423 43.9802 80.8879 44.0286 80.8288C44.0512 80.8435 44.0738 80.8581 44.0964 80.8728C44.009 81.1444 43.9216 81.4159 43.8179 81.7385C43.0623 81.7385 42.3014 81.7396 41.5405 81.7354C41.5005 81.7352 41.4607 81.6899 41.4209 81.6656C41.4595 81.6406 41.4958 81.5997 41.5372 81.5934C41.7919 81.5545 41.8414 81.5062 41.8381 81.247C41.8288 80.5192 41.8193 79.7914 41.8022 79.0638C41.7949 78.7559 41.7781 78.7493 41.4767 78.7029C41.4406 78.6973 41.4094 78.6593 41.3759 78.6364C41.4179 78.6128 41.4595 78.5698 41.5022 78.5687C41.9549 78.5576 42.4078 78.5532 42.8607 78.5467C43.1146 78.5431 43.3688 78.5452 43.6222 78.5324C43.7584 78.5255 43.8056 78.5748 43.803 78.7093C43.8003 78.8474 43.822 78.986 43.8219 79.1243C43.8219 79.1669 43.7853 79.2093 43.7655 79.2519C43.7349 79.2231 43.6905 79.2002 43.6759 79.1647C43.5105 78.7646 43.4971 78.754 43.0536 78.7596C42.8272 78.7624 42.6007 78.767 42.3744 78.7721C42.3551 78.7726 42.336 78.7835 42.3102 78.7917Z" fill="#95A0B3"/>
</g>
<path fill-rule="evenodd" clip-rule="evenodd" d="M11.7588 65.0639C11.4769 65.3188 11.2008 65.5653 10.9299 65.8177C10.8986 65.8468 10.8734 65.9153 10.8849 65.9532C10.9495 66.1653 11.211 66.3495 11.435 66.3537C11.71 66.3589 12.0254 66.1107 12.1179 65.8165C12.2067 65.5337 12.0941 65.2894 11.7588 65.0639ZM11.2726 64.228C11.3178 64.2329 11.3831 64.2201 11.405 64.2455C11.7472 64.6419 12.1121 65.0229 12.4135 65.4494C12.6942 65.8465 12.6076 66.2979 12.2715 66.5917C11.9223 66.8969 11.4601 66.8811 11.1028 66.5326C10.9521 66.3857 10.8316 66.2073 10.6887 66.0326C10.448 66.2547 10.2111 66.4747 9.97251 66.6929C9.8238 66.829 9.81053 66.9689 9.94066 67.1283C9.97012 67.1644 9.96711 67.2276 9.97902 67.2783C9.9306 67.2559 9.86921 67.2455 9.83587 67.209C9.57537 66.9236 9.3201 66.6334 9.064 66.344C9.05123 66.3295 9.04591 66.3084 9.06268 66.2368C9.11303 66.2592 9.17559 66.2693 9.2116 66.306C9.35656 66.4537 9.49493 66.4489 9.64364 66.3142C10.1853 65.8237 10.7323 65.3392 11.269 64.8433C11.4962 64.6334 11.4867 64.5441 11.2726 64.228Z" fill="#95A0B3"/>
<path fill-rule="evenodd" clip-rule="evenodd" d="M43.9625 0.310798C43.9466 0.694014 43.9283 1.07157 43.9187 1.44933C43.9177 1.49108 43.956 1.55555 43.9928 1.57299C44.2399 1.6897 44.5696 1.58727 44.7201 1.35606C44.8741 1.11939 44.8707 0.732764 44.7033 0.514164C44.5151 0.26851 44.2593 0.252902 43.9625 0.310798ZM43.855 1.75792C43.855 2.1068 43.8512 2.45106 43.8566 2.79515C43.8591 2.95639 43.9472 3.04696 44.1113 3.06602C44.168 3.07264 44.2215 3.10823 44.2765 3.13062C44.2697 3.15884 44.263 3.18706 44.2563 3.21528C43.8164 3.18981 43.3764 3.16517 42.9368 3.13445C42.9246 3.13362 42.9168 3.06756 42.9015 3.01225C42.9809 3.01225 43.0415 3.0147 43.102 3.01175C43.2563 3.00426 43.3462 2.92089 43.3537 2.76564C43.3911 1.99746 43.4223 1.22894 43.4612 0.460846C43.4766 0.155214 43.2725 0.117921 43.0291 0.117879C43.0304 0.0989408 43.0316 0.0800443 43.0329 0.0611062C43.0763 0.0397956 43.121 -0.00199312 43.1631 0.000337721C43.6558 0.0274338 44.1521 0.0318041 44.6394 0.100939C45.1999 0.18052 45.4939 0.655472 45.3678 1.19148C45.2792 1.56812 44.949 1.81811 44.5044 1.82094C44.3083 1.82219 44.1119 1.78427 43.855 1.75792Z" fill="#95A0B3"/>
<path fill-rule="evenodd" clip-rule="evenodd" d="M12.5945 12.1752C12.8589 12.4141 13.1298 12.6592 13.4011 12.9039C13.4314 12.9312 13.4634 12.9565 13.4927 12.9813C13.8258 12.7872 13.965 12.5684 13.9242 12.3095C13.8819 12.0412 13.607 11.7577 13.3365 11.7035C13.0677 11.6496 12.8363 11.778 12.5945 12.1752ZM11.8094 12.6659C11.8217 12.5705 11.811 12.5101 11.8351 12.4878C12.2276 12.1224 12.6041 11.735 13.0267 11.4088C13.3659 11.147 13.789 11.207 14.0673 11.4701C14.4232 11.8065 14.458 12.2972 14.1337 12.6793C13.9925 12.8457 13.816 12.9815 13.6321 13.153C13.8804 13.4021 14.1294 13.6638 14.3925 13.9101C14.5099 14.02 14.6323 13.9533 14.7427 13.8633C14.7813 13.8318 14.839 13.824 14.9059 13.7986C14.5797 14.166 14.2831 14.5002 13.9864 14.8345C13.9573 14.8201 13.9283 14.8057 13.8993 14.7914C13.9109 14.7422 13.9083 14.6818 13.9364 14.6457C14.1037 14.431 14.1099 14.3635 13.9244 14.1669C13.4514 13.6657 12.9747 13.1679 12.497 12.6713C12.2162 12.3794 12.1833 12.379 11.8094 12.6659Z" fill="#95A0B3"/>
<path fill-rule="evenodd" clip-rule="evenodd" d="M2.80806 29.4282C2.46185 29.4161 2.22726 29.6275 2.16216 29.9947C2.13974 30.121 2.1657 30.1857 2.29624 30.2176C2.60236 30.2923 2.90671 30.3749 3.20949 30.4624C3.32153 30.4948 3.36195 30.4519 3.40951 30.3546C3.66737 29.8266 3.26982 29.448 2.80806 29.4282ZM3.54091 30.5492C3.8727 30.6359 4.19547 30.7246 4.52063 30.8033C4.68516 30.8432 4.79634 30.7742 4.85357 30.6075C4.87265 30.5519 4.92506 30.5081 4.98263 30.4762C4.9043 31.1192 4.69629 31.7528 4.58132 31.7905C4.57341 31.7799 4.55775 31.7682 4.55895 31.7587C4.60654 31.3748 4.59797 31.3486 4.23474 31.2476C3.56164 31.0605 2.88619 30.882 2.21037 30.7053C1.95844 30.6394 1.91389 30.6713 1.80449 30.9175C1.78694 30.957 1.73765 30.982 1.70308 31.0137C1.69282 30.9676 1.66439 30.9166 1.6751 30.8761C1.781 30.4754 1.89152 30.0758 2.00529 29.6772C2.03166 29.5847 2.07085 29.495 2.11197 29.4078C2.31553 28.9763 2.74543 28.7733 3.16326 28.9083C3.60239 29.0502 3.83331 29.4583 3.73166 29.9453C3.69115 30.1395 3.6129 30.3256 3.54091 30.5492Z" fill="#95A0B3"/>
<path fill-rule="evenodd" clip-rule="evenodd" d="M76.652 50.8809C77.0259 51.0168 77.405 51.0453 77.7241 51.2401C77.7169 51.267 77.7096 51.2939 77.7024 51.3208C77.6159 51.3143 77.5296 51.3054 77.4431 51.3015C76.9916 51.2814 76.5989 51.6317 76.6 52.0514C76.6005 52.2405 76.6785 52.388 76.839 52.4825C76.9981 52.5762 77.1533 52.5264 77.2772 52.4174C77.5457 52.1812 77.8027 51.9316 78.0635 51.6864C78.2464 51.5145 78.4383 51.3606 78.6993 51.3311C79.254 51.2682 79.7407 51.7747 79.6238 52.3428C79.5658 52.6247 79.4044 52.886 79.2821 53.1531C79.2316 53.2633 79.1205 53.3633 79.2896 53.4673C79.3066 53.4778 79.314 53.5364 79.301 53.555C79.2876 53.5742 79.2405 53.5841 79.2139 53.5768C78.9167 53.4949 78.6201 53.4105 78.3248 53.3216C78.2964 53.313 78.2781 53.2695 78.2551 53.2423C78.3038 53.2223 78.353 53.1837 78.401 53.1853C78.8872 53.2007 79.1772 53.0319 79.3278 52.626C79.3608 52.5371 79.3775 52.4382 79.3817 52.343C79.3905 52.1419 79.3174 51.9723 79.1363 51.874C78.9601 51.7783 78.7839 51.8213 78.6325 51.9316C78.4998 52.0283 78.3839 52.1486 78.2622 52.2603C78.0745 52.4327 77.8971 52.6179 77.6992 52.7772C77.3837 53.0312 77.0218 53.0526 76.7257 52.8579C76.4418 52.6712 76.28 52.2629 76.383 51.9041C76.437 51.7158 76.5401 51.5381 76.6426 51.3689C76.7198 51.2416 76.833 51.1367 76.6536 51.0074C76.6412 50.9984 76.652 50.9566 76.652 50.8809Z" fill="#95A0B3"/>
<path fill-rule="evenodd" clip-rule="evenodd" d="M76.007 53.5802C76.0126 53.6302 76.0323 53.6834 76.0216 53.7295C75.9668 53.9678 75.9998 54.0554 76.2268 54.1526C76.6999 54.3552 77.179 54.5437 77.6509 54.749C78.2131 54.9935 78.4516 55.3247 78.4129 55.8307C78.3831 56.2198 78.2368 56.5752 77.9736 56.8622C77.7199 57.1388 77.3866 57.235 77.0324 57.1146C76.5266 56.9426 76.0319 56.737 75.5326 56.5454C75.4494 56.5134 75.3681 56.4758 75.2837 56.4475C75.0495 56.369 74.9712 56.4051 74.8612 56.634C74.8465 56.6647 74.8295 56.6942 74.7876 56.7735C74.7572 56.6882 74.7156 56.6328 74.7287 56.5988C74.8723 56.2245 75.0228 55.853 75.1772 55.4831C75.1897 55.453 75.2451 55.4412 75.2805 55.4209C75.2871 55.4565 75.3047 55.4944 75.2983 55.5276C75.236 55.8525 75.2538 55.9012 75.5579 56.0243C76.0729 56.2326 76.5862 56.4478 77.1106 56.6292C77.5869 56.7941 77.9014 56.6438 78.0776 56.2072C78.2304 55.8288 78.2249 55.3015 77.7373 55.0832C77.1865 54.8367 76.6253 54.614 76.0671 54.3843C75.8725 54.3043 75.7548 54.3921 75.6823 54.5768C75.6694 54.6096 75.6178 54.6268 75.5841 54.6512C75.5733 54.6118 75.5429 54.5646 75.5548 54.5343C75.6806 54.2142 75.8131 53.8968 75.9438 53.5786C75.9649 53.5792 75.9859 53.5797 76.007 53.5802Z" fill="#95A0B3"/>
<path fill-rule="evenodd" clip-rule="evenodd" d="M9.85354 63.8513C9.88658 63.7942 9.91226 63.7309 9.95379 63.6811C10.2405 63.3373 10.2979 63.0055 10.1005 62.6718C10.0404 62.5703 9.94386 62.473 9.8408 62.4185C9.54511 62.2621 9.25053 62.427 9.2401 62.7627C9.23174 63.0309 9.27134 63.3007 9.28988 63.5697C9.30364 63.7699 9.3378 63.9709 9.32808 64.1698C9.2961 64.8253 8.68765 65.1776 8.10047 64.89C7.80519 64.7454 7.63097 64.4948 7.51538 64.1957C7.48056 64.1056 7.45592 64.0116 7.42411 63.9202C7.38221 63.7999 7.34677 63.6695 7.16913 63.7516C7.15487 63.7582 7.11931 63.7177 7.06348 63.6773C7.36877 63.4504 7.65672 63.2364 7.94471 63.0224C7.96581 63.034 7.98695 63.0456 8.00804 63.0572C7.98118 63.1166 7.96572 63.1857 7.92563 63.2339C7.6109 63.612 7.57868 64.001 7.86551 64.368C7.95365 64.4808 8.08827 64.5829 8.22203 64.6274C8.50717 64.7224 8.77847 64.4966 8.78041 64.1637C8.78197 63.8948 8.73442 63.6261 8.72313 63.3566C8.71337 63.1228 8.683 62.8787 8.73339 62.6557C8.86426 62.0763 9.49484 61.8571 9.98548 62.1999C10.2278 62.3693 10.3668 62.609 10.4387 62.8951C10.4757 63.0423 10.486 63.2317 10.7287 63.1594C10.7498 63.1531 10.784 63.1917 10.8359 63.2246C10.5092 63.4646 10.2176 63.6789 9.92589 63.8931L9.85354 63.8513Z" fill="#95A0B3"/>
<path fill-rule="evenodd" clip-rule="evenodd" d="M77.9871 26.4389C77.6345 26.4227 77.2502 26.405 76.831 26.3857C76.9535 26.7084 77.0637 26.9985 77.1935 27.3404C77.4808 27.0141 77.7343 26.7261 77.9871 26.4389ZM75.2791 25.8318C75.3668 25.8563 75.4325 25.8543 75.4504 25.8829C75.5871 26.1009 75.8069 26.0954 76.0173 26.1045C76.9015 26.1428 77.786 26.1749 78.6701 26.2134C78.7387 26.2164 78.8058 26.2512 78.8737 26.2712C78.8335 26.3367 78.8046 26.414 78.7514 26.4658C78.1142 27.0863 77.473 27.7026 76.8337 28.321C76.6605 28.4885 76.5033 28.6643 76.6051 28.9412C76.5921 28.9553 76.5791 28.9694 76.566 28.9836C76.5241 28.9517 76.4604 28.9286 76.4436 28.8865C76.3156 28.5658 76.1951 28.242 76.0774 27.9172C76.0646 27.8817 76.0841 27.8342 76.0887 27.7923C76.1279 27.816 76.1827 27.83 76.2036 27.8649C76.2992 28.0238 76.4047 28.0224 76.5425 27.9169C77.0358 27.539 77.0372 27.5409 76.8144 26.9591C76.7971 26.914 76.7819 26.8679 76.7624 26.8237C76.6991 26.6804 76.6632 26.4455 76.5642 26.4139C76.3515 26.3459 76.1055 26.3705 75.8742 26.3811C75.6992 26.3892 75.738 26.532 75.7453 26.6501C75.7485 26.7009 75.7268 26.7533 75.7164 26.805C75.6781 26.7662 75.6232 26.7343 75.6044 26.6876C75.4989 26.4249 75.4021 26.1587 75.2791 25.8318Z" fill="#95A0B3"/>
<path fill-rule="evenodd" clip-rule="evenodd" d="M5.05881 57.1256C5.34194 56.8109 5.60071 56.5232 5.8667 56.2276H4.6381C4.78521 56.5416 4.91323 56.8148 5.05881 57.1256ZM4.50039 58.8665C4.2002 58.3912 3.95791 57.7638 4.02734 57.661C4.03999 57.6643 4.05792 57.6636 4.06435 57.672C4.26181 57.9282 4.30536 57.9301 4.53533 57.6912C4.89621 57.3162 4.89621 57.3162 4.67902 56.8425C4.6646 56.8111 4.6498 56.7798 4.6353 56.7485C4.37191 56.1799 4.37216 56.1816 3.7497 56.2671C3.58318 56.29 3.51985 56.3655 3.56938 56.5361C3.58537 56.5912 3.56641 56.6566 3.56349 56.7173C3.51655 56.6718 3.45326 56.6346 3.42557 56.5793C3.31741 56.363 3.21797 56.1422 3.12196 55.9201C3.10692 55.8853 3.12637 55.8352 3.12992 55.7922C3.16523 55.8025 3.21711 55.8012 3.2333 55.8249C3.37048 56.0252 3.57861 56.0062 3.77479 56.0013C4.59846 55.9806 5.42196 55.9525 6.24551 55.9268C6.321 55.9244 6.39719 55.9113 6.4716 55.9186C6.5398 55.9252 6.60602 55.9526 6.6731 55.9708C6.64385 56.0289 6.62448 56.0957 6.58356 56.1437C6.44486 56.3067 6.29846 56.463 6.15506 56.6219C5.70637 57.1191 5.25487 57.6138 4.81055 58.115C4.65701 58.2882 4.47723 58.4585 4.56875 58.7367C4.5781 58.7651 4.53006 58.8128 4.50039 58.8665Z" fill="#95A0B3"/>
<path fill-rule="evenodd" clip-rule="evenodd" d="M62.1558 8.29801C62.4345 8.50292 62.6844 8.68672 62.9531 8.88422C63.0509 8.46425 63.1393 8.08466 63.2406 7.64958C62.8574 7.87863 62.5245 8.07762 62.1558 8.29801ZM61.5153 9.25129C61.4245 9.25129 61.3637 9.27064 61.3312 9.24817C61.1105 9.09541 60.8947 8.93525 60.6804 8.77342C60.6528 8.75261 60.6425 8.70857 60.6241 8.67528C60.6583 8.66121 60.7028 8.62554 60.7249 8.6364C60.9479 8.74653 61.1285 8.62679 61.303 8.52277C62.065 8.06859 62.8222 7.606 63.5831 7.14995C63.6474 7.1114 63.7266 7.09838 63.7989 7.07349C63.8003 7.1579 63.8184 7.24618 63.8003 7.32609C63.6019 8.20349 63.3974 9.07947 63.1957 9.95608C63.1496 10.1564 63.1228 10.3535 63.2926 10.5189C63.3139 10.5397 63.3083 10.5887 63.3152 10.6247C63.2741 10.6219 63.2225 10.6346 63.1935 10.6142C62.9062 10.4124 62.6216 10.2066 62.3396 9.99724C62.3103 9.97543 62.3034 9.92282 62.2862 9.88453C62.3323 9.88087 62.3884 9.85818 62.4229 9.8767C62.5986 9.97106 62.6851 9.9058 62.7443 9.73044C62.9401 9.15148 62.943 9.15248 62.4542 8.79411C62.432 8.77779 62.4094 8.7621 62.3871 8.74587C61.9081 8.39608 61.9081 8.39608 61.4318 8.74687C61.2391 8.88872 61.2346 8.94378 61.4003 9.12272C61.4275 9.15206 61.4538 9.18236 61.5153 9.25129Z" fill="#95A0B3"/>
<path fill-rule="evenodd" clip-rule="evenodd" d="M21.3987 7.36023C21.6944 7.18833 21.9567 7.03586 22.2468 6.86721C21.9106 6.60932 21.6029 6.37336 21.2521 6.10436C21.3044 6.55213 21.349 6.93414 21.3987 7.36023ZM23.9796 7.28148C23.7215 7.52513 22.9809 7.91006 22.863 7.86323C22.863 7.85033 22.8574 7.83206 22.8638 7.82535C23.1031 7.57446 23.1006 7.54132 22.8229 7.31964C22.4394 7.01351 22.4394 7.01355 22.0076 7.26449C21.9423 7.30245 21.8752 7.33754 21.8116 7.37829C21.6859 7.45887 21.4664 7.53213 21.4563 7.62698C21.4315 7.85965 21.4909 8.1056 21.5414 8.34072C21.5719 8.48294 21.693 8.44066 21.796 8.41373C21.8573 8.39774 21.9231 8.39941 21.9868 8.39312C21.9918 8.41785 21.9968 8.44257 22.0017 8.46725C21.7373 8.62296 21.4738 8.78017 21.2072 8.93188C21.1817 8.94641 21.1371 8.92655 21.1013 8.92268C21.1074 8.88714 21.1006 8.8369 21.1215 8.8183C21.2911 8.66725 21.2723 8.47345 21.2501 8.27862C21.1456 7.36397 21.0392 6.44957 20.9374 5.53463C20.9307 5.47349 20.9571 5.4086 20.968 5.34546C21.0273 5.37106 21.0945 5.38587 21.1445 5.42396C21.8283 5.94594 22.5079 6.47375 23.1931 6.99395C23.3979 7.14945 23.5986 7.34541 23.8961 7.21317C23.9093 7.20731 23.936 7.22008 23.95 7.23186C23.9642 7.24372 23.9704 7.26516 23.9796 7.28148Z" fill="#95A0B3"/>
<path fill-rule="evenodd" clip-rule="evenodd" d="M74.1468 20.8642C74.3864 20.5176 74.6072 20.1982 74.8615 19.8304C74.419 19.9 74.0378 19.96 73.6288 20.0243C73.8058 20.3112 73.9644 20.5684 74.1468 20.8642ZM73.7628 22.6311C73.5624 22.3093 73.3606 21.9884 73.1638 21.6644C73.1445 21.6326 73.1557 21.5819 73.1527 21.54C73.1967 21.5525 73.2591 21.5506 73.2818 21.58C73.4084 21.7437 73.5143 21.7018 73.6326 21.5688C74.0269 21.1252 74.0308 21.1038 73.7276 20.6078C73.7096 20.5784 73.692 20.5486 73.674 20.5192C73.3662 20.0148 73.3662 20.0148 72.7917 20.1544C72.5588 20.211 72.5335 20.2612 72.6055 20.4864C72.6205 20.5335 72.6035 20.591 72.6012 20.6438C72.561 20.6157 72.5076 20.5963 72.4829 20.558C72.3444 20.3435 72.211 20.1256 72.0809 19.9059C72.0608 19.8719 72.0667 19.8221 72.0605 19.7795C72.1017 19.7862 72.1436 19.7896 72.1837 19.8002C72.3231 19.8372 72.4677 19.9241 72.5997 19.9073C73.3129 19.8166 74.023 19.7008 74.734 19.5929C74.9643 19.558 75.1937 19.517 75.4246 19.4879C75.4839 19.4804 75.5474 19.5075 75.609 19.5188C75.5877 19.5739 75.5762 19.636 75.5435 19.6831C75.0558 20.3863 74.5649 21.0872 74.0759 21.7894C74.0089 21.8855 73.9252 21.9782 73.89 22.0861C73.85 22.2088 73.8552 22.3466 73.8423 22.478C73.8371 22.5304 73.8362 22.5831 73.8332 22.6357C73.8098 22.6341 73.7863 22.6326 73.7628 22.6311Z" fill="#95A0B3"/>
<path fill-rule="evenodd" clip-rule="evenodd" d="M78.8733 33.1664C79.2191 32.9114 79.5288 32.6831 79.8831 32.4219C79.4448 32.3411 79.0658 32.2712 78.6519 32.195C78.7289 32.5329 78.797 32.8318 78.8733 33.1664ZM77.7311 33.4596C77.765 33.4973 77.8128 33.5294 77.8305 33.5738C77.9026 33.7542 78.0189 33.7562 78.1576 33.6638C78.3065 33.5648 78.4561 33.4653 78.594 33.3519C78.6339 33.3191 78.6596 33.2328 78.6493 33.1795C78.5915 32.8806 78.5236 32.5836 78.4513 32.2878C78.4383 32.2348 78.3954 32.1577 78.354 32.1486C78.1469 32.1033 77.9364 32.071 77.7258 32.046C77.5918 32.03 77.548 32.1176 77.5454 32.2406C77.5439 32.3128 77.5295 32.3847 77.5163 32.4959C77.3432 32.2702 77.2046 31.5611 77.2934 31.4319C77.5947 31.9309 78.1307 31.8196 78.5763 31.923C79.2104 32.0701 79.8574 32.1599 80.498 32.2793C80.5642 32.2916 80.6241 32.3381 80.6869 32.3688C80.6409 32.423 80.6032 32.4888 80.5476 32.5298C79.8377 33.0524 79.125 33.5713 78.4134 34.0918C78.2279 34.2274 78.0379 34.3602 78.0677 34.6375C78.0701 34.6599 78.0391 34.7016 78.0172 34.7068C77.9935 34.7125 77.9417 34.6908 77.9373 34.6725C77.8438 34.2796 77.7552 33.8855 77.6657 33.4916C77.6875 33.4809 77.7093 33.4703 77.7311 33.4596Z" fill="#95A0B3"/>
<path fill-rule="evenodd" clip-rule="evenodd" d="M4.34781 28.414C4.45272 28.0836 4.54659 27.7879 4.65035 27.4613C4.22613 27.4997 3.84386 27.5343 3.41004 27.5736C3.74324 27.8722 4.03304 28.1319 4.34781 28.414ZM5.46758 28.7757C5.47904 28.8263 5.51139 28.8833 5.49845 28.9266C5.42296 29.1782 5.33906 29.4275 5.25171 29.6753C5.23922 29.7107 5.19237 29.7337 5.16142 29.7625C5.14511 29.7362 5.1121 29.7079 5.11503 29.6841C5.14556 29.4367 4.97542 29.3027 4.82329 29.1665C4.24286 28.6465 3.65736 28.1322 3.0738 27.6158C2.9705 27.5244 2.86398 27.4363 2.76575 27.3397C2.73097 27.3055 2.71642 27.2503 2.69269 27.2047C2.73884 27.1839 2.78371 27.1489 2.83143 27.1443C3.27546 27.1012 3.71991 27.0624 4.1644 27.024C4.63617 26.9834 5.10786 26.941 5.58004 26.9065C5.82109 26.8888 6.02588 26.8226 6.17258 26.5664C6.1856 26.6172 6.22095 26.6749 6.20806 26.7178C6.10867 27.0489 6.00161 27.3778 5.89172 27.7056C5.87956 27.742 5.83473 27.7672 5.80506 27.7976C5.78796 27.7543 5.75491 27.7104 5.75644 27.6678C5.76398 27.4592 5.72137 27.4094 5.51398 27.4074C5.50026 27.4073 5.48654 27.4084 5.47282 27.409C4.89622 27.4339 4.89618 27.4339 4.71463 27.9923C4.7082 28.012 4.70247 28.0319 4.69613 28.0517C4.51523 28.6153 4.51523 28.6152 4.9877 28.9691C5.1744 29.1089 5.2426 29.0941 5.35711 28.8887C5.37697 28.8531 5.39716 28.8177 5.41715 28.7822C5.43396 28.78 5.45077 28.7778 5.46758 28.7757Z" fill="#95A0B3"/>
<path fill-rule="evenodd" clip-rule="evenodd" d="M46.9324 80.0397C46.7219 79.6689 46.5319 79.3343 46.312 78.9468C46.1873 79.3816 46.0808 79.7532 45.9644 80.1594C46.2977 80.1182 46.593 80.0817 46.9324 80.0397ZM45.0407 81.555C45.0969 81.4649 45.112 81.4072 45.1427 81.3968C45.3575 81.3246 45.4182 81.1375 45.4728 80.9514C45.7292 80.0761 45.98 79.199 46.2361 78.3235C46.2556 78.2569 46.3015 78.1982 46.3351 78.1357C46.3846 78.1859 46.4478 78.2281 46.4817 78.2874C46.9208 79.0545 47.3555 79.8242 47.7919 80.5929C47.921 80.8203 48.0558 81.0418 48.3826 81.0046C48.3842 81.024 48.3859 81.0433 48.3876 81.0626C48.3429 81.0926 48.301 81.1424 48.2531 81.1492C47.9138 81.1975 47.5735 81.2388 47.2329 81.2763C47.1967 81.2803 47.1564 81.2453 47.1179 81.2285C47.1468 81.1977 47.17 81.1538 47.2054 81.1382C47.4232 81.0425 47.4403 81.0025 47.3407 80.7808C47.0985 80.2418 47.0986 80.2422 46.5273 80.3198C46.405 80.3364 46.2815 80.3659 46.1599 80.3604C45.949 80.3508 45.8497 80.446 45.8195 80.6492C45.8022 80.7647 45.7579 80.8758 45.7336 80.9906C45.6862 81.2141 45.7234 81.2622 45.9407 81.2928C45.9958 81.3005 46.0481 81.3283 46.1016 81.3469C46.099 81.3688 46.0963 81.3907 46.0936 81.4126C45.7662 81.4569 45.4388 81.5012 45.0407 81.555Z" fill="#95A0B3"/>
<path fill-rule="evenodd" clip-rule="evenodd" d="M6.47805 19.2178C6.80683 19.3695 7.13557 19.5212 7.46436 19.6729C7.46118 19.6984 7.45805 19.7239 7.45488 19.7494C7.37852 19.7494 7.30052 19.7597 7.22602 19.7477C6.61143 19.6496 6.13699 19.9903 6.0364 20.6082C5.98819 20.9045 6.09199 21.1622 6.27911 21.375C6.62491 21.7682 7.04896 22.0411 7.57265 22.1265C8.27455 22.2411 8.92235 21.5367 8.75823 20.8378C8.72835 20.7106 8.67454 20.5893 8.63926 20.4631C8.62431 20.4097 8.62876 20.3508 8.65575 20.29C8.93657 20.653 9.05631 21.0481 8.9221 21.5001C8.63193 22.4776 7.66165 22.9038 6.75603 22.4504C5.8157 21.9798 5.47361 20.952 5.99104 20.1218C6.08416 19.9723 6.20918 19.832 6.34821 19.7258C6.51785 19.5962 6.60781 19.4813 6.41682 19.2858C6.43721 19.2631 6.45765 19.2405 6.47805 19.2178Z" fill="#95A0B3"/>
<path fill-rule="evenodd" clip-rule="evenodd" d="M36.8192 78.2576C36.797 78.6837 36.7783 79.0416 36.7597 79.3996C36.737 79.4076 36.7144 79.4156 36.6918 79.4237C36.6605 79.3503 36.6191 79.2796 36.5996 79.2032C36.4913 78.7791 36.2595 78.4798 35.8114 78.4002C35.4196 78.3307 35.0802 78.4363 34.8531 78.7737C34.5127 79.2796 34.402 79.8459 34.5564 80.4385C34.7544 81.1983 35.6674 81.4766 36.2712 80.9769C36.3506 80.9112 36.4182 80.8304 36.4997 80.7678C36.5345 80.7412 36.5911 80.7435 36.6676 80.7256C36.3705 81.3246 35.7093 81.5795 35.0182 81.3967C34.2558 81.1951 33.8203 80.4505 33.9652 79.576C34.1868 78.2381 35.5363 77.837 36.3581 78.4107C36.4755 78.4927 36.5821 78.5123 36.6672 78.3607C36.6854 78.3283 36.7343 78.3135 36.8192 78.2576Z" fill="#95A0B3"/>
<path fill-rule="evenodd" clip-rule="evenodd" d="M16.472 12.3942C16.7215 12.0339 16.7219 11.9989 16.4517 11.6843C16.0018 11.1605 15.5508 10.6377 15.0998 10.1149C15.0556 10.0637 15.0077 10.0156 14.9357 9.93839C14.7776 10.1093 14.5727 10.2461 14.4998 10.4349C14.4352 10.6022 14.5173 10.8273 14.4916 11.0436C14.3362 10.8463 14.1808 10.6491 14.0179 10.4424C14.6686 9.87308 15.3056 9.3158 15.9602 8.74316C16.1346 8.92963 16.3023 9.10886 16.5158 9.33703C16.416 9.33703 16.3551 9.35589 16.317 9.33408C15.9758 9.13866 15.8861 9.14403 15.5883 9.39863C15.5055 9.46947 15.4239 9.54169 15.3286 9.62472C15.5547 9.88878 15.7686 10.1394 15.9833 10.3893C16.2893 10.7454 16.5917 11.1048 16.9037 11.4554C17.0905 11.6652 17.1464 11.6625 17.3747 11.5137C17.4092 11.4911 17.4635 11.4995 17.5087 11.4936C17.4902 11.5374 17.4831 11.5942 17.4513 11.623C17.1798 11.8676 16.9055 12.1091 16.6272 12.3457C16.5891 12.3782 16.5244 12.3788 16.472 12.3942Z" fill="#95A0B3"/>
<path fill-rule="evenodd" clip-rule="evenodd" d="M4.67776 50.1726C4.41392 50.2518 4.18576 50.3203 3.95756 50.3888L3.91545 50.3499C3.94359 50.3066 3.96193 50.2474 4.00141 50.2228C4.30934 50.0301 4.36035 49.9115 4.27246 49.5534C4.24634 49.4469 4.21691 49.3413 4.18201 49.2088C3.9361 49.2693 3.69949 49.3266 3.46326 49.3857C2.97805 49.5069 2.49269 49.6275 2.00815 49.7514C1.56889 49.8638 1.56704 49.8686 1.55406 50.3315C1.52027 50.2877 1.46831 50.2487 1.45562 50.1993C1.35581 49.8113 1.26351 49.4214 1.16895 49.0321C1.18419 49.0179 1.19944 49.0037 1.21468 48.9895C1.25235 49.0342 1.30591 49.0731 1.32466 49.1248C1.38272 49.2847 1.48219 49.3706 1.65283 49.3287C2.44971 49.1334 3.24569 48.9343 4.07142 48.7292C4.00932 48.5187 3.97005 48.3215 3.89258 48.1409C3.81487 47.9598 3.63805 47.9308 3.45753 47.9271C3.40845 47.9261 3.36008 47.8906 3.31141 47.8709C3.35694 47.8424 3.39914 47.7997 3.44863 47.7878C3.64102 47.7416 3.83572 47.7052 4.05551 47.6597C4.2629 48.4972 4.46774 49.3244 4.67776 50.1726Z" fill="#95A0B3"/>
<path fill-rule="evenodd" clip-rule="evenodd" d="M19.7913 72.4165C19.6796 72.3435 19.5949 72.2853 19.5074 72.2317C19.1689 72.0242 19.0882 72.0325 18.7776 72.2866C18.744 72.3141 18.6883 72.3142 18.6429 72.327C18.6336 72.3105 18.6243 72.294 18.615 72.2774C18.7538 72.0758 18.8925 71.8741 19.0446 71.6531C19.7763 72.1124 20.4954 72.5637 21.2207 73.0189C21.0917 73.252 20.9719 73.4684 20.8521 73.6848L20.7964 73.6892C20.7865 73.6402 20.7583 73.5865 20.7695 73.543C20.8623 73.1824 20.8231 73.0739 20.5095 72.8688C20.4176 72.8086 20.3244 72.7504 20.2191 72.6833C20.1838 72.7279 20.1475 72.7658 20.1203 72.8095C19.7405 73.4192 19.3606 74.029 18.9834 74.6405C18.7892 74.9553 18.7927 74.9557 19.0463 75.2245C19.0703 75.2499 19.0694 75.2995 19.0801 75.3378C19.0655 75.3499 19.0509 75.362 19.0364 75.3741L17.8981 74.6603C17.9027 74.6369 17.9073 74.6135 17.9119 74.5901C17.97 74.5973 18.0375 74.5879 18.0846 74.6148C18.2473 74.7081 18.3746 74.678 18.4722 74.5227C18.909 73.8274 19.3441 73.131 19.7913 72.4165Z" fill="#95A0B3"/>
<path fill-rule="evenodd" clip-rule="evenodd" d="M0.974487 34.1357C1.12427 33.2754 1.26874 32.4458 1.41836 31.5867C1.64932 31.615 1.8713 31.6399 2.09228 31.6718C2.12327 31.6763 2.14931 31.7152 2.17766 31.7382C2.15137 31.763 2.12879 31.8026 2.09818 31.8105C1.61096 31.9358 1.49294 32.1018 1.50234 32.6755C2.1388 32.788 2.77845 32.9012 3.41817 33.014C3.53293 33.0342 3.6481 33.0518 3.76282 33.0721C4.13482 33.138 4.18147 33.1078 4.2924 32.669C4.33958 32.759 4.38832 32.8074 4.38214 32.847C4.3233 33.2229 4.25733 33.5977 4.18641 33.9714C4.17867 34.0123 4.12716 34.0447 4.09593 34.0811C4.08039 34.0408 4.05245 34.001 4.05126 33.9603C4.04223 33.6532 4.03585 33.6291 3.74489 33.5743C3.01097 33.4362 2.27532 33.3073 1.53917 33.1819C1.49006 33.1735 1.38984 33.2169 1.38329 33.2503C1.3488 33.4256 1.2933 33.6155 1.3308 33.7804C1.36051 33.9111 1.51148 34.0153 1.61343 34.1267C1.65253 34.1695 1.70495 34.1997 1.7513 34.2357C1.73927 34.2569 1.72724 34.2782 1.71521 34.2994C1.47852 34.2471 1.24187 34.1948 0.974487 34.1357Z" fill="#95A0B3"/>
<path fill-rule="evenodd" clip-rule="evenodd" d="M80.1635 30.6015C79.9084 30.6849 79.677 30.7605 79.4457 30.8362C79.4333 30.8249 79.4209 30.8136 79.4086 30.8024C79.4316 30.7593 79.4441 30.7014 79.4795 30.6755C79.8185 30.4269 79.842 30.37 79.7434 29.9667C79.7191 29.867 79.6912 29.7683 79.6588 29.646C79.3767 29.7211 79.1078 29.7921 78.8393 29.8644C78.3497 29.9964 77.8595 30.1264 77.3711 30.2628C77.0829 30.3433 77.0609 30.3856 77.0863 30.6823C77.0895 30.7197 77.059 30.76 77.0442 30.7989C77.013 30.7701 76.9632 30.7465 76.9534 30.7115C76.8512 30.3454 76.7537 29.9779 76.6601 29.6094C76.6499 29.5689 76.6721 29.52 76.6801 29.4701C76.7259 29.4838 76.7467 29.4843 76.7495 29.4917C76.8937 29.8736 76.9461 29.8657 77.3422 29.7609C78.0637 29.57 78.7825 29.3692 79.5482 29.16C79.472 28.9458 79.4469 28.6994 79.314 28.5527C79.1905 28.4162 78.952 28.3858 78.7547 28.2685C78.9949 28.2156 79.235 28.1627 79.4996 28.1045C79.7217 28.9401 79.9407 29.7636 80.1635 30.6015Z" fill="#95A0B3"/>
<path fill-rule="evenodd" clip-rule="evenodd" d="M40.3982 80.8689C40.3091 81.1352 40.2246 81.4032 40.1253 81.6656C40.1121 81.7004 40.0236 81.7236 39.9703 81.723C39.2701 81.7155 38.57 81.704 37.8699 81.689C37.8046 81.6876 37.7399 81.6556 37.6542 81.6321C37.7006 81.5791 37.7083 81.5615 37.7181 81.5602C38.1108 81.5103 38.1235 81.505 38.1336 81.105C38.1505 80.4327 38.1599 79.76 38.1667 79.0875C38.1703 78.7333 38.155 78.7224 37.7937 78.6576C37.7772 78.6547 37.7636 78.6354 37.7486 78.6237C37.8231 78.5264 38.721 78.4962 39.1906 78.6209C39.1377 78.6424 39.0863 78.6761 39.0314 78.6833C38.7242 78.7239 38.6651 78.7788 38.6582 79.0896C38.6427 79.7759 38.6317 80.4623 38.6228 81.1487C38.6195 81.4078 38.6651 81.4521 38.919 81.4587C39.0974 81.4634 39.2764 81.4553 39.4543 81.4658C39.8077 81.4867 40.0407 81.3203 40.1928 81.0104C40.2268 80.9412 40.278 80.8806 40.3213 80.816C40.3469 80.8336 40.3726 80.8513 40.3982 80.8689Z" fill="#95A0B3"/>
<path fill-rule="evenodd" clip-rule="evenodd" d="M54.2956 2.57892C54.0156 3.40786 53.7503 4.18558 53.4913 4.96541C53.4337 5.13873 53.4814 5.2765 53.6661 5.35121C53.7165 5.3716 53.752 5.42954 53.7944 5.47021C53.7803 5.49035 53.7663 5.51045 53.7522 5.53056C53.347 5.39183 52.9412 5.25427 52.5373 5.11159C52.5117 5.10251 52.4999 5.05348 52.4816 5.02302C52.5137 5.0077 52.5466 4.97748 52.5777 4.97923C52.9506 5.0005 52.9547 5.0032 53.0751 4.65753C53.2957 4.02416 53.5144 3.39005 53.7268 2.75381C53.8272 2.45309 53.8074 2.42217 53.5354 2.25743C53.5022 2.23728 53.4836 2.19249 53.4583 2.15911C53.4962 2.147 53.5407 2.11516 53.5711 2.12561C54.3289 2.386 55.0851 2.65084 55.8618 2.92188C55.7812 3.17386 55.7065 3.40799 55.6317 3.64216L55.568 3.65327C55.5531 3.59941 55.5211 3.54384 55.5262 3.49198C55.5569 3.17653 55.5101 3.06023 55.2235 2.93366C54.9307 2.80434 54.6255 2.70357 54.2956 2.57892Z" fill="#95A0B3"/>
<path fill-rule="evenodd" clip-rule="evenodd" d="M54.4598 79.4011C54.0378 79.5398 53.6158 79.6785 53.1939 79.8171C53.1778 79.8019 53.1618 79.7866 53.1458 79.7714C53.1792 79.7339 53.2058 79.6824 53.2474 79.6614C53.4701 79.5493 53.5192 79.4748 53.4434 79.2337C53.2173 78.5148 52.9792 77.7998 52.7466 77.0831C52.6887 76.9046 52.5705 76.851 52.3942 76.8936C52.3395 76.9068 52.2791 76.8956 52.2214 76.8956C52.2163 76.8689 52.2112 76.8422 52.2062 76.8155C52.6336 76.6744 53.0611 76.5332 53.4885 76.3921C53.5038 76.4104 53.5191 76.4286 53.5345 76.4469C53.4952 76.4849 53.4625 76.5395 53.4157 76.558C53.2165 76.6367 53.1642 76.7692 53.2301 76.9709C53.46 77.6739 53.6811 78.3798 53.9138 79.0818C53.9955 79.3286 54.0602 79.352 54.3183 79.3053C54.3659 79.2966 54.4188 79.3179 54.4693 79.3255C54.4661 79.3506 54.463 79.3759 54.4598 79.4011Z" fill="#95A0B3"/>
</svg>
