<svg width="183" height="40" viewBox="0 0 183 40" fill="none" xmlns="http://www.w3.org/2000/svg">
<g clip-path="url(#clip0_0_566)">
<path d="M26.6392 13.4203C26.6392 20.7751 20.6823 26.732 13.3276 26.732C5.97278 26.732 0 20.7751 0 13.4203C0 6.06554 5.9569 0.108643 13.3117 0.108643C20.6665 0.108643 26.6392 6.06554 26.6392 13.4203Z" fill="#009FD6"/>
<path d="M19.0939 6.55786L13.3117 19.2183L7.54543 6.55786H6.79883V18.5511H7.72016V9.16301L12.7875 20.2984H13.8359L18.9191 9.16301V18.5511H19.8405V6.55786H19.0939Z" fill="white"/>
</g>
<path d="M176.225 38.0462V33.0778H176.981V33.8844H176.999C177.116 33.6201 177.299 33.4127 177.547 33.2622C177.799 33.1086 178.087 33.0317 178.409 33.0317C178.744 33.0317 179.033 33.1132 179.276 33.276C179.519 33.4389 179.694 33.6708 179.801 33.972H179.82C179.961 33.677 180.17 33.4465 180.446 33.2806C180.723 33.1147 181.035 33.0317 181.382 33.0317C181.874 33.0317 182.265 33.1792 182.557 33.4742C182.852 33.7692 183 34.1625 183 34.6541V38.0462H182.198V34.8384C182.198 34.4943 182.106 34.227 181.921 34.0365C181.74 33.8429 181.483 33.7461 181.152 33.7461C180.82 33.7461 180.546 33.8567 180.331 34.078C180.119 34.2992 180.013 34.5803 180.013 34.9214V38.0462H179.211V34.7416C179.211 34.4405 179.116 34.1993 178.926 34.018C178.738 33.8368 178.489 33.7461 178.179 33.7461C177.847 33.7461 177.572 33.8629 177.354 34.0964C177.136 34.3268 177.027 34.6157 177.027 34.9629V38.0462H176.225Z" fill="#222A37"/>
<path d="M173.211 33.7369C172.821 33.7369 172.497 33.8659 172.238 34.124C171.983 34.3821 171.842 34.7217 171.814 35.1426H174.548C174.538 34.7217 174.411 34.3821 174.165 34.124C173.922 33.8659 173.604 33.7369 173.211 33.7369ZM174.529 36.6267H175.322C175.254 37.0538 175.027 37.4056 174.64 37.6821C174.253 37.9556 173.793 38.0923 173.262 38.0923C172.564 38.0923 172.01 37.8665 171.598 37.4148C171.189 36.9631 170.985 36.3517 170.985 35.5805C170.985 34.8092 171.189 34.1916 171.598 33.7277C172.007 33.2637 172.549 33.0317 173.225 33.0317C173.888 33.0317 174.414 33.2514 174.801 33.6908C175.188 34.1271 175.382 34.7201 175.382 35.4698V35.7832H171.814V35.8293C171.814 36.3025 171.948 36.6804 172.215 36.9631C172.483 37.2458 172.838 37.3871 173.28 37.3871C173.59 37.3871 173.858 37.3195 174.082 37.1844C174.309 37.0461 174.458 36.8602 174.529 36.6267Z" fill="#222A37"/>
<path d="M168.708 31.958H169.51V33.078H170.478V33.7417H169.51V36.7236C169.51 36.951 169.559 37.1184 169.657 37.226C169.759 37.3335 169.915 37.3873 170.127 37.3873C170.266 37.3873 170.381 37.3796 170.473 37.3642V38.0417C170.356 38.0694 170.184 38.0832 169.957 38.0832C169.508 38.0832 169.187 37.9818 168.994 37.779C168.803 37.5732 168.708 37.2321 168.708 36.7559V33.7417H168.016V33.078H168.708V31.958Z" fill="#222A37"/>
<path d="M163.827 34.4651C163.827 34.0473 163.997 33.7047 164.338 33.4374C164.682 33.17 165.125 33.0364 165.666 33.0364C166.17 33.0364 166.592 33.1716 166.933 33.442C167.277 33.7093 167.457 34.0473 167.472 34.4559H166.703C166.678 34.2224 166.571 34.038 166.38 33.9028C166.19 33.7677 165.942 33.7001 165.638 33.7001C165.331 33.7001 165.083 33.7661 164.896 33.8982C164.709 34.0304 164.615 34.2055 164.615 34.4237C164.615 34.7555 164.894 34.9905 165.454 35.1288L166.21 35.3178C166.71 35.4438 167.062 35.6066 167.265 35.8063C167.471 36.003 167.574 36.2826 167.574 36.6451C167.574 37.0692 167.389 37.4164 167.021 37.6868C166.655 37.9571 166.185 38.0923 165.61 38.0923C165.076 38.0923 164.632 37.9602 164.278 37.696C163.925 37.4287 163.728 37.0799 163.688 36.6498H164.495C164.535 36.9017 164.655 37.0953 164.855 37.2305C165.057 37.3626 165.328 37.4287 165.666 37.4287C166.004 37.4287 166.271 37.3641 166.468 37.2351C166.667 37.103 166.767 36.9247 166.767 36.7004C166.767 36.5253 166.709 36.387 166.592 36.2856C166.475 36.1812 166.276 36.0921 165.993 36.0183L165.122 35.7925C164.258 35.5682 163.827 35.1257 163.827 34.4651Z" fill="#222A37"/>
<path d="M159.605 39.8483C159.485 39.8483 159.368 39.8376 159.255 39.8161V39.1386C159.347 39.157 159.456 39.1662 159.582 39.1662C159.812 39.1662 159.997 39.1032 160.135 38.9773C160.273 38.8544 160.393 38.6439 160.494 38.3458L160.591 38.0509L158.752 33.0779H159.605L160.997 37.2305H161.015L162.407 33.0779H163.251L161.306 38.3505C161.094 38.925 160.866 39.3183 160.624 39.5303C160.384 39.7423 160.044 39.8483 159.605 39.8483Z" fill="#222A37"/>
<path d="M154.563 34.4651C154.563 34.0473 154.734 33.7047 155.075 33.4374C155.419 33.17 155.861 33.0364 156.402 33.0364C156.906 33.0364 157.329 33.1716 157.67 33.442C158.014 33.7093 158.193 34.0473 158.209 34.4559H157.439C157.415 34.2224 157.307 34.038 157.117 33.9028C156.926 33.7677 156.679 33.7001 156.374 33.7001C156.067 33.7001 155.82 33.7661 155.632 33.8982C155.445 34.0304 155.351 34.2055 155.351 34.4237C155.351 34.7555 155.631 34.9905 156.19 35.1288L156.946 35.3178C157.447 35.4438 157.799 35.6066 158.001 35.8063C158.207 36.003 158.31 36.2826 158.31 36.6451C158.31 37.0692 158.126 37.4164 157.757 37.6868C157.392 37.9571 156.921 38.0923 156.347 38.0923C155.812 38.0923 155.368 37.9602 155.015 37.696C154.662 37.4287 154.465 37.0799 154.425 36.6498H155.231C155.271 36.9017 155.391 37.0953 155.591 37.2305C155.794 37.3626 156.064 37.4287 156.402 37.4287C156.74 37.4287 157.007 37.3641 157.204 37.2351C157.404 37.103 157.504 36.9247 157.504 36.7004C157.504 36.5253 157.445 36.387 157.329 36.2856C157.212 36.1812 157.012 36.0921 156.729 36.0183L155.858 35.7925C154.995 35.5682 154.563 35.1257 154.563 34.4651Z" fill="#222A37"/>
<path d="M149.033 37.3318C149.469 37.3318 149.821 37.1675 150.088 36.8387C150.359 36.5068 150.494 36.0751 150.494 35.5436C150.494 35.009 150.359 34.5757 150.088 34.2439C149.821 33.912 149.469 33.7461 149.033 33.7461C148.599 33.7461 148.252 33.9105 147.991 34.2393C147.73 34.565 147.599 34.9997 147.599 35.5436C147.599 36.0844 147.73 36.5176 147.991 36.8433C148.252 37.169 148.599 37.3318 149.033 37.3318ZM149.047 39.8206C148.484 39.8206 148.016 39.6947 147.641 39.4427C147.266 39.1938 147.049 38.8635 146.991 38.4518H147.825C147.884 38.6577 148.026 38.8205 148.254 38.9403C148.484 39.0632 148.764 39.1247 149.093 39.1247C149.523 39.1247 149.864 39.0202 150.116 38.8113C150.368 38.6054 150.494 38.3258 150.494 37.9725V37.1936H150.475C150.319 37.464 150.1 37.6744 149.821 37.825C149.541 37.9725 149.228 38.0462 148.881 38.0462C148.251 38.0462 147.742 37.8173 147.355 37.3595C146.971 36.8986 146.779 36.2933 146.779 35.5436C146.779 34.7847 146.973 34.1763 147.36 33.7185C147.747 33.2606 148.26 33.0317 148.899 33.0317C149.249 33.0317 149.564 33.1055 149.844 33.253C150.127 33.4004 150.351 33.6109 150.517 33.8844H150.531V33.0778H151.296V37.9079C151.296 38.501 151.094 38.968 150.692 39.3091C150.292 39.6501 149.744 39.8206 149.047 39.8206Z" fill="#222A37"/>
<path d="M141.788 38.0462V33.0778H142.544V33.8844H142.562C142.878 33.316 143.419 33.0317 144.184 33.0317C144.731 33.0317 145.163 33.1961 145.479 33.5249C145.796 33.8506 145.954 34.2961 145.954 34.8615V38.0462H145.152V34.9997C145.152 34.5942 145.048 34.2838 144.839 34.0687C144.633 33.8537 144.335 33.7461 143.945 33.7461C143.536 33.7461 143.207 33.8752 142.958 34.1333C142.713 34.3914 142.59 34.734 142.59 35.161V38.0462H141.788Z" fill="#222A37"/>
<path d="M139.851 38.0463V33.0779H140.653V38.0463H139.851ZM140.252 32.2759C140.114 32.2759 139.994 32.2268 139.893 32.1284C139.795 32.027 139.745 31.9072 139.745 31.7689C139.745 31.6276 139.795 31.5078 139.893 31.4094C139.994 31.3111 140.114 31.262 140.252 31.262C140.394 31.262 140.514 31.3111 140.612 31.4094C140.71 31.5078 140.759 31.6276 140.759 31.7689C140.759 31.9072 140.71 32.027 140.612 32.1284C140.514 32.2268 140.394 32.2759 140.252 32.2759Z" fill="#222A37"/>
<path d="M137.146 31.958H137.948V33.078H138.916V33.7417H137.948V36.7236C137.948 36.951 137.998 37.1184 138.096 37.226C138.197 37.3335 138.354 37.3873 138.566 37.3873C138.704 37.3873 138.819 37.3796 138.912 37.3642V38.0417C138.795 38.0694 138.623 38.0832 138.395 38.0832C137.947 38.0832 137.626 37.9818 137.432 37.779C137.242 37.5732 137.146 37.2321 137.146 36.7559V33.7417H136.455V33.078H137.146V31.958Z" fill="#222A37"/>
<path d="M131.648 38.0462V33.0778H132.404V33.8844H132.422C132.739 33.316 133.28 33.0317 134.045 33.0317C134.592 33.0317 135.023 33.1961 135.34 33.5249C135.656 33.8506 135.815 34.2961 135.815 34.8615V38.0462H135.013V34.9997C135.013 34.5942 134.908 34.2838 134.699 34.0687C134.493 33.8537 134.195 33.7461 133.805 33.7461C133.396 33.7461 133.068 33.8752 132.819 34.1333C132.573 34.3914 132.45 34.734 132.45 35.161V38.0462H131.648Z" fill="#222A37"/>
<path d="M130.555 33.0779V38.0463H129.799V37.2259H129.781C129.467 37.8035 128.925 38.0924 128.154 38.0924C127.61 38.0924 127.18 37.9295 126.863 37.6038C126.547 37.275 126.389 36.828 126.389 36.2626V33.0779H127.191V36.1244C127.191 36.5299 127.294 36.8403 127.499 37.0554C127.708 37.2704 128.008 37.378 128.398 37.378C128.807 37.378 129.134 37.2489 129.38 36.9908C129.629 36.7327 129.753 36.3901 129.753 35.963V33.0779H130.555Z" fill="#222A37"/>
<path d="M124.946 37.4056C124.532 37.8634 123.975 38.0923 123.278 38.0923C122.58 38.0923 122.024 37.8634 121.61 37.4056C121.195 36.9478 120.987 36.3332 120.987 35.562C120.987 34.7908 121.195 34.1763 121.61 33.7185C122.024 33.2606 122.58 33.0317 123.278 33.0317C123.975 33.0317 124.532 33.2606 124.946 33.7185C125.361 34.1763 125.569 34.7908 125.569 35.562C125.569 36.3332 125.361 36.9478 124.946 37.4056ZM123.278 37.3779C123.742 37.3779 124.103 37.2182 124.361 36.8986C124.622 36.576 124.753 36.1305 124.753 35.562C124.753 34.9905 124.622 34.545 124.361 34.2254C124.103 33.9059 123.742 33.7461 123.278 33.7461C122.814 33.7461 122.451 33.9074 122.19 34.2301C121.932 34.5496 121.803 34.9936 121.803 35.562C121.803 36.1305 121.934 36.576 122.195 36.8986C122.456 37.2182 122.817 37.3779 123.278 37.3779Z" fill="#222A37"/>
<path d="M120.453 34.6955H119.665C119.612 34.4159 119.474 34.1886 119.25 34.0134C119.026 33.8352 118.734 33.7461 118.374 33.7461C117.938 33.7461 117.586 33.912 117.319 34.2439C117.051 34.5757 116.918 35.0151 116.918 35.562C116.918 36.1212 117.051 36.5637 117.319 36.8894C117.589 37.2151 117.944 37.3779 118.383 37.3779C118.731 37.3779 119.015 37.2996 119.236 37.1429C119.46 36.9831 119.606 36.7542 119.674 36.4561H120.462C120.394 36.9447 120.17 37.3395 119.789 37.6406C119.411 37.9417 118.941 38.0923 118.379 38.0923C117.69 38.0923 117.139 37.8649 116.724 37.4102C116.309 36.9524 116.102 36.3363 116.102 35.562C116.102 34.8 116.309 34.1886 116.724 33.7277C117.139 33.2637 117.687 33.0317 118.37 33.0317C118.956 33.0317 119.437 33.1946 119.812 33.5203C120.187 33.8429 120.4 34.2347 120.453 34.6955Z" fill="#222A37"/>
<path d="M115.567 34.6955H114.779C114.727 34.4159 114.588 34.1886 114.364 34.0134C114.14 33.8352 113.848 33.7461 113.488 33.7461C113.052 33.7461 112.7 33.912 112.433 34.2439C112.166 34.5757 112.032 35.0151 112.032 35.562C112.032 36.1212 112.166 36.5637 112.433 36.8894C112.703 37.2151 113.058 37.3779 113.498 37.3779C113.845 37.3779 114.129 37.2996 114.35 37.1429C114.575 36.9831 114.72 36.7542 114.788 36.4561H115.576C115.509 36.9447 115.284 37.3395 114.903 37.6406C114.525 37.9417 114.055 38.0923 113.493 38.0923C112.805 38.0923 112.253 37.8649 111.838 37.4102C111.424 36.9524 111.216 36.3363 111.216 35.562C111.216 34.8 111.424 34.1886 111.838 33.7277C112.253 33.2637 112.802 33.0317 113.484 33.0317C114.071 33.0317 114.551 33.1946 114.926 33.5203C115.301 33.8429 115.515 34.2347 115.567 34.6955Z" fill="#222A37"/>
<path d="M108.188 37.3964C108.594 37.3964 108.929 37.2796 109.193 37.0461C109.461 36.8095 109.594 36.513 109.594 36.1566V35.7556L108.295 35.8386C107.539 35.8846 107.161 36.1504 107.161 36.6359C107.161 36.8663 107.253 37.0507 107.437 37.189C107.625 37.3272 107.875 37.3964 108.188 37.3964ZM108.018 38.0923C107.514 38.0923 107.108 37.9586 106.801 37.6913C106.494 37.424 106.34 37.0707 106.34 36.6313C106.34 36.2042 106.5 35.8693 106.82 35.6265C107.139 35.3807 107.6 35.2394 108.202 35.2025L109.594 35.1196V34.7048C109.594 34.3975 109.496 34.1609 109.299 33.995C109.103 33.8291 108.821 33.7461 108.456 33.7461C108.167 33.7461 107.923 33.8153 107.723 33.9535C107.526 34.0918 107.403 34.2777 107.354 34.5112H106.585C106.597 34.0933 106.783 33.743 107.142 33.4604C107.502 33.1746 107.943 33.0317 108.465 33.0317C109.052 33.0317 109.52 33.1777 109.871 33.4696C110.221 33.7584 110.396 34.1471 110.396 34.6356V38.0462H109.636V37.1844H109.617C109.476 37.4609 109.261 37.6821 108.972 37.848C108.683 38.0109 108.365 38.0923 108.018 38.0923Z" fill="#222A37"/>
<path d="M102.372 38.0462V31.1052H103.174V38.0462H102.372Z" fill="#222A37"/>
<path d="M99.3118 33.7369C98.9216 33.7369 98.5974 33.8659 98.3393 34.124C98.0843 34.3821 97.9429 34.7217 97.9153 35.1426H100.648C100.639 34.7217 100.512 34.3821 100.266 34.124C100.023 33.8659 99.7051 33.7369 99.3118 33.7369ZM100.63 36.6267H101.423C101.355 37.0538 101.128 37.4056 100.741 37.6821C100.353 37.9556 99.894 38.0923 99.3625 38.0923C98.665 38.0923 98.1104 37.8665 97.6987 37.4148C97.29 36.9631 97.0857 36.3517 97.0857 35.5805C97.0857 34.8092 97.29 34.1916 97.6987 33.7277C98.1073 33.2637 98.6496 33.0317 99.3256 33.0317C99.9893 33.0317 100.515 33.2514 100.902 33.6908C101.289 34.1271 101.483 34.7201 101.483 35.4698V35.7832H97.9153V35.8293C97.9153 36.3025 98.049 36.6804 98.3163 36.9631C98.5836 37.2458 98.9385 37.3871 99.3809 37.3871C99.6913 37.3871 99.9586 37.3195 100.183 37.1844C100.41 37.0461 100.559 36.8602 100.63 36.6267Z" fill="#222A37"/>
<path d="M96.8091 33.0779L94.9747 38.0463H94.1636L92.3292 33.0779H93.168L94.5599 37.1798H94.5784L95.9749 33.0779H96.8091Z" fill="#222A37"/>
<path d="M89.4855 37.3964C89.8911 37.3964 90.226 37.2796 90.4902 37.0461C90.7576 36.8095 90.8912 36.513 90.8912 36.1566V35.7556L89.5915 35.8386C88.8356 35.8846 88.4577 36.1504 88.4577 36.6359C88.4577 36.8663 88.5499 37.0507 88.7342 37.189C88.9217 37.3272 89.1721 37.3964 89.4855 37.3964ZM89.315 38.0923C88.8111 38.0923 88.4055 37.9586 88.0982 37.6913C87.791 37.424 87.6373 37.0707 87.6373 36.6313C87.6373 36.2042 87.7971 35.8693 88.1167 35.6265C88.4362 35.3807 88.8971 35.2394 89.4993 35.2025L90.8912 35.1196V34.7048C90.8912 34.3975 90.7929 34.1609 90.5962 33.995C90.3996 33.8291 90.1185 33.7461 89.7528 33.7461C89.464 33.7461 89.2197 33.8153 89.02 33.9535C88.8234 34.0918 88.7004 34.2777 88.6513 34.5112H87.8816C87.8939 34.0933 88.0798 33.743 88.4393 33.4604C88.7988 33.1746 89.2397 33.0317 89.762 33.0317C90.3489 33.0317 90.8175 33.1777 91.1677 33.4696C91.518 33.7584 91.6932 34.1471 91.6932 34.6356V38.0462H90.9327V37.1844H90.9143C90.7729 37.4609 90.5578 37.6821 90.269 37.848C89.9802 38.0109 89.6622 38.0923 89.315 38.0923Z" fill="#222A37"/>
<path d="M84.8671 38.0462V33.0778H85.6229V33.8844H85.6414C85.7151 33.6232 85.8611 33.4158 86.0792 33.2622C86.2974 33.1086 86.5524 33.0317 86.8443 33.0317C86.9703 33.0317 87.0732 33.0425 87.1531 33.064V33.8567C87.067 33.8199 86.9288 33.8014 86.7383 33.8014C86.4157 33.8014 86.156 33.909 85.9594 34.124C85.7658 34.3391 85.669 34.6218 85.669 34.9721V38.0462H84.8671Z" fill="#222A37"/>
<path d="M82.2081 31.958H83.01V33.078H83.9779V33.7417H83.01V36.7236C83.01 36.951 83.0592 37.1184 83.1575 37.226C83.2589 37.3335 83.4156 37.3873 83.6276 37.3873C83.7659 37.3873 83.8811 37.3796 83.9733 37.3642V38.0417C83.8565 38.0694 83.6844 38.0832 83.4571 38.0832C83.0085 38.0832 82.6874 37.9818 82.4938 37.779C82.3033 37.5732 82.2081 37.2321 82.2081 36.7559V33.7417H81.5167V33.078H82.2081V31.958Z" fill="#222A37"/>
<path d="M76.161 38.0923C75.5342 38.0923 75.0227 37.8603 74.6263 37.3964C74.2299 36.9293 74.0317 36.3179 74.0317 35.562C74.0317 34.8092 74.2284 34.1993 74.6217 33.7323C75.015 33.2653 75.5219 33.0317 76.1426 33.0317C76.496 33.0317 76.8094 33.1055 77.0828 33.253C77.3594 33.4005 77.5744 33.6109 77.7281 33.8844H77.7465V31.1052H78.5485V38.0462H77.7834V37.2074H77.7696C77.6067 37.4932 77.387 37.7128 77.1105 37.8665C76.837 38.017 76.5205 38.0923 76.161 38.0923ZM76.3039 33.7461C75.8676 33.7461 75.5158 33.912 75.2485 34.2439C74.9842 34.5757 74.8521 35.0151 74.8521 35.562C74.8521 36.112 74.9842 36.5529 75.2485 36.8848C75.5158 37.2135 75.8676 37.3779 76.3039 37.3779C76.7341 37.3779 77.0828 37.2105 77.3501 36.8756C77.6175 36.5406 77.7511 36.1028 77.7511 35.562C77.7511 35.0212 77.6175 34.5834 77.3501 34.2485C77.0828 33.9136 76.7341 33.7461 76.3039 33.7461Z" fill="#222A37"/>
<path d="M71.2617 33.7369C70.8715 33.7369 70.5474 33.8659 70.2893 34.124C70.0342 34.3821 69.8929 34.7217 69.8652 35.1426H72.5983C72.5891 34.7217 72.4616 34.3821 72.2158 34.124C71.973 33.8659 71.655 33.7369 71.2617 33.7369ZM72.5799 36.6267H73.3726C73.305 37.0538 73.0776 37.4056 72.6905 37.6821C72.3034 37.9556 71.844 38.0923 71.3124 38.0923C70.615 38.0923 70.0604 37.8665 69.6486 37.4148C69.24 36.9631 69.0356 36.3517 69.0356 35.5805C69.0356 34.8092 69.24 34.1916 69.6486 33.7277C70.0573 33.2637 70.5996 33.0317 71.2756 33.0317C71.9392 33.0317 72.4647 33.2514 72.8518 33.6908C73.239 34.1271 73.4325 34.7201 73.4325 35.4698V35.7832H69.8652V35.8293C69.8652 36.3025 69.9989 36.6804 70.2662 36.9631C70.5335 37.2458 70.8884 37.3871 71.3309 37.3871C71.6412 37.3871 71.9085 37.3195 72.1328 37.1844C72.3602 37.0461 72.5092 36.8602 72.5799 36.6267Z" fill="#222A37"/>
<path d="M66.7592 31.958H67.5612V33.078H68.529V33.7417H67.5612V36.7236C67.5612 36.951 67.6103 37.1184 67.7086 37.226C67.81 37.3335 67.9667 37.3873 68.1787 37.3873C68.317 37.3873 68.4322 37.3796 68.5244 37.3642V38.0417C68.4077 38.0694 68.2356 38.0832 68.0082 38.0832C67.5596 38.0832 67.2385 37.9818 67.045 37.779C66.8545 37.5732 66.7592 37.2321 66.7592 36.7559V33.7417H66.0679V33.078H66.7592V31.958Z" fill="#222A37"/>
<path d="M63.224 37.3964C63.6296 37.3964 63.9645 37.2796 64.2288 37.0461C64.4961 36.8095 64.6297 36.513 64.6297 36.1566V35.7556L63.33 35.8386C62.5742 35.8846 62.1962 36.1504 62.1962 36.6359C62.1962 36.8663 62.2884 37.0507 62.4728 37.189C62.6602 37.3272 62.9106 37.3964 63.224 37.3964ZM63.0535 38.0923C62.5496 38.0923 62.144 37.9586 61.8367 37.6913C61.5295 37.424 61.3759 37.0707 61.3759 36.6313C61.3759 36.2042 61.5356 35.8693 61.8552 35.6265C62.1747 35.3807 62.6356 35.2394 63.2378 35.2025L64.6297 35.1196V34.7048C64.6297 34.3975 64.5314 34.1609 64.3348 33.995C64.1381 33.8291 63.857 33.7461 63.4913 33.7461C63.2025 33.7461 62.9582 33.8153 62.7585 33.9535C62.5619 34.0918 62.439 34.2777 62.3898 34.5112H61.6201C61.6324 34.0933 61.8183 33.743 62.1778 33.4604C62.5373 33.1746 62.9782 33.0317 63.5006 33.0317C64.0874 33.0317 64.556 33.1777 64.9063 33.4696C65.2565 33.7584 65.4317 34.1471 65.4317 34.6356V38.0462H64.6712V37.1844H64.6528C64.5114 37.4609 64.2964 37.6821 64.0075 37.848C63.7187 38.0109 63.4007 38.0923 63.0535 38.0923Z" fill="#222A37"/>
<path d="M53.7576 38.0462V33.0778H54.5134V33.8844H54.5319C54.6486 33.6201 54.8314 33.4127 55.0803 33.2622C55.3323 33.1086 55.6196 33.0317 55.9422 33.0317C56.2771 33.0317 56.5659 33.1132 56.8087 33.276C57.0514 33.4389 57.2265 33.6708 57.3341 33.972H57.3525C57.4938 33.677 57.7028 33.4465 57.9793 33.2806C58.2558 33.1147 58.5677 33.0317 58.9149 33.0317C59.4065 33.0317 59.7983 33.1792 60.0902 33.4742C60.3852 33.7692 60.5326 34.1625 60.5326 34.6541V38.0462H59.7307V34.8384C59.7307 34.4943 59.6385 34.227 59.4542 34.0365C59.2729 33.8429 59.0163 33.7461 58.6845 33.7461C58.3526 33.7461 58.0792 33.8567 57.8641 34.078C57.6521 34.2992 57.5461 34.5803 57.5461 34.9214V38.0462H56.7441V34.7416C56.7441 34.4405 56.6489 34.1993 56.4584 34.018C56.271 33.8368 56.0221 33.7461 55.7117 33.7461C55.3799 33.7461 55.1049 33.8629 54.8867 34.0964C54.6686 34.3268 54.5595 34.6157 54.5595 34.9629V38.0462H53.7576Z" fill="#222A37"/>
<path d="M52.2916 37.4056C51.8768 37.8634 51.3206 38.0923 50.6231 38.0923C49.9257 38.0923 49.3695 37.8634 48.9547 37.4056C48.5399 36.9478 48.3325 36.3332 48.3325 35.562C48.3325 34.7908 48.5399 34.1763 48.9547 33.7185C49.3695 33.2606 49.9257 33.0317 50.6231 33.0317C51.3206 33.0317 51.8768 33.2606 52.2916 33.7185C52.7064 34.1763 52.9138 34.7908 52.9138 35.562C52.9138 36.3332 52.7064 36.9478 52.2916 37.4056ZM50.6231 37.3779C51.0871 37.3779 51.4481 37.2182 51.7062 36.8986C51.9674 36.576 52.098 36.1305 52.098 35.562C52.098 34.9905 51.9674 34.545 51.7062 34.2254C51.4481 33.9059 51.0871 33.7461 50.6231 33.7461C50.1592 33.7461 49.7966 33.9074 49.5354 34.2301C49.2773 34.5496 49.1483 34.9936 49.1483 35.562C49.1483 36.1305 49.2789 36.576 49.5401 36.8986C49.8012 37.2182 50.1623 37.3779 50.6231 37.3779Z" fill="#222A37"/>
<path d="M46.0557 31.958H46.8577V33.078H47.8255V33.7417H46.8577V36.7236C46.8577 36.951 46.9068 37.1184 47.0051 37.226C47.1065 37.3335 47.2632 37.3873 47.4753 37.3873C47.6135 37.3873 47.7287 37.3796 47.8209 37.3642V38.0417C47.7042 38.0694 47.5321 38.0832 47.3047 38.0832C46.8561 38.0832 46.535 37.9818 46.3415 37.779C46.151 37.5732 46.0557 37.2321 46.0557 36.7559V33.7417H45.3644V33.078H46.0557V31.958Z" fill="#222A37"/>
<path d="M44.7012 33.0779V38.0463H43.9454V37.2259H43.9269C43.6135 37.8035 43.0712 38.0924 42.3 38.0924C41.7561 38.0924 41.326 37.9295 41.0095 37.6038C40.693 37.275 40.5348 36.828 40.5348 36.2626V33.0779H41.3367V36.1244C41.3367 36.5299 41.4397 36.8403 41.6455 37.0554C41.8545 37.2704 42.154 37.378 42.5443 37.378C42.9529 37.378 43.2802 37.2489 43.526 36.9908C43.7748 36.7327 43.8993 36.3901 43.8993 35.963V33.0779H44.7012Z" fill="#222A37"/>
<path d="M39.1657 38.0461L38.4974 36.1427H35.8519L35.1836 38.0461H34.3125L36.7644 31.3955H37.5848L40.0367 38.0461H39.1657ZM37.1608 32.4049L36.0961 35.4375H38.2531L37.1885 32.4049H37.1608Z" fill="#222A37"/>
<path d="M159.566 24.9459V8.23591H162.751V11.0671H162.813C163.582 9.18989 165.382 8.05127 167.567 8.05127C169.89 8.05127 171.568 9.22066 172.245 11.2979H172.322C173.199 9.28221 175.168 8.05127 177.553 8.05127C180.846 8.05127 183 10.2208 183 13.5597V24.9459H179.676V14.3598C179.676 12.1749 178.492 10.9132 176.414 10.9132C174.368 10.9132 172.922 12.4365 172.922 14.5753V24.9459H169.644V14.0829C169.644 12.1441 168.398 10.9132 166.444 10.9132C164.382 10.9132 162.905 12.5134 162.905 14.6983V24.9459H159.566Z" fill="#222A37"/>
<path d="M156.15 8.23584V24.9458H152.965V22.0839H152.903C151.934 24.0688 150.242 25.1305 147.687 25.1305C144.041 25.1305 141.825 22.7763 141.825 18.945V8.23584H145.164V18.3142C145.164 20.8837 146.379 22.2532 148.795 22.2532C151.288 22.2532 152.811 20.5145 152.811 17.8679V8.23584H156.15Z" fill="#222A37"/>
<path d="M135.009 24.9455V8.23554H138.348V24.9455H135.009ZM136.686 5.85059C135.609 5.85059 134.732 4.98894 134.732 3.92725C134.732 2.83479 135.609 2.00391 136.686 2.00391C137.763 2.00391 138.64 2.83479 138.64 3.92725C138.64 4.98894 137.763 5.85059 136.686 5.85059Z" fill="#222A37"/>
<path d="M117.221 24.9459V8.23591H120.406V11.0517H120.468C121.484 9.08218 123.161 8.05127 125.746 8.05127C129.439 8.05127 131.546 10.3901 131.546 14.2367V24.9459H128.208V14.8676C128.208 12.3288 127.038 10.9132 124.592 10.9132C122.068 10.9132 120.56 12.6673 120.56 15.2984V24.9459H117.221Z" fill="#222A37"/>
<path d="M99.5576 24.9459V8.23591H102.743V11.0517H102.804C103.82 9.08218 105.497 8.05127 108.082 8.05127C111.775 8.05127 113.883 10.3901 113.883 14.2367V24.9459H110.544V14.8676C110.544 12.3288 109.374 10.9132 106.928 10.9132C104.404 10.9132 102.897 12.6673 102.897 15.2984V24.9459H99.5576Z" fill="#222A37"/>
<path d="M89.3715 10.744C86.9711 10.744 85.2324 12.4981 85.0478 15.0676H93.5259C93.449 12.4673 91.8026 10.744 89.3715 10.744ZM93.5105 20.0529H96.6956C96.2186 23.0534 93.2797 25.146 89.5253 25.146C84.6785 25.146 81.6627 21.884 81.6627 16.6525C81.6627 11.421 84.7093 8.02051 89.3869 8.02051C93.9721 8.02051 96.8648 11.2056 96.8648 16.2678V17.4372H85.0324V17.6372C85.0324 20.5299 86.8481 22.4379 89.5869 22.4379C91.5256 22.4379 93.0489 21.5147 93.5105 20.0529Z" fill="#222A37"/>
<path d="M75.5082 24.9459V1.74268H78.8471V24.9459H75.5082Z" fill="#222A37"/>
<path d="M68.4609 24.9459V1.74268H71.7999V24.9459H68.4609Z" fill="#222A37"/>
<path d="M61.4291 24.9455V8.23554H64.768V24.9455H61.4291ZM63.1062 5.85059C62.0291 5.85059 61.1521 4.98894 61.1521 3.92725C61.1521 2.83479 62.0291 2.00391 63.1062 2.00391C64.1833 2.00391 65.0603 2.83479 65.0603 3.92725C65.0603 4.98894 64.1833 5.85059 63.1062 5.85059Z" fill="#222A37"/>
<path d="M57.5516 2.74268V24.9458H54.3973V8.60503H54.2896L47.5963 24.7765H45.0421L38.3335 8.60503H38.2258V24.9458H35.0869V2.74268H39.0721L46.2577 20.2682H46.3808L53.551 2.74268H57.5516Z" fill="#222A37"/>
<defs>
<clipPath id="clip0_0_566">
<rect width="26.6392" height="26.6392" fill="white" transform="translate(0 0.108643)"/>
</clipPath>
</defs>
</svg>
