<svg width="32" height="32" viewBox="0 0 32 32" fill="none" xmlns="http://www.w3.org/2000/svg">
<g clip-path="url(#clip0_0_223)">
<path d="M29.44 17.3011V11.2C29.44 11.0256 29.3933 10.8551 29.3031 10.7059L24.1027 2.03681C23.8453 1.61178 23.4829 1.26008 23.0503 1.01547C22.6178 0.770869 22.1296 0.641577 21.6327 0.640015H8.44738C7.95029 0.64153 7.46195 0.770902 7.02931 1.01569C6.59667 1.26048 6.23428 1.61246 5.97698 2.03777L0.776977 10.7059C0.687029 10.855 0.63966 11.0259 0.640017 11.2V26.56C0.640017 28.1482 1.93186 29.44 3.52002 29.44H17.3011C18.7847 30.6384 20.6688 31.36 22.72 31.36C27.4845 31.36 31.36 27.4845 31.36 22.72C31.36 20.6688 30.6384 18.7847 29.44 17.3011ZM16 2.56001H21.6327C21.9683 2.56001 22.2842 2.73921 22.4567 3.02593L26.7843 10.24H16V2.56001ZM7.62338 3.02689C7.70911 2.8849 7.82995 2.76736 7.97426 2.6856C8.11858 2.60383 8.28151 2.56058 8.44738 2.56001H14.08V10.24H3.2957L7.62338 3.02689ZM2.56002 26.56V12.16H27.52V15.5408C26.1011 14.587 24.4298 14.0783 22.72 14.08C17.9555 14.08 14.08 17.9555 14.08 22.72C14.0783 24.4297 14.587 26.1011 15.5408 27.52H3.52002C2.99042 27.52 2.56002 27.0896 2.56002 26.56ZM22.72 29.44C19.0151 29.44 16 26.425 16 22.72C16 19.0151 19.0151 16 22.72 16C26.425 16 29.44 19.0151 29.44 22.72C29.44 26.425 26.425 29.44 22.72 29.44ZM21.76 26.56C21.6339 26.5602 21.5091 26.5354 21.3926 26.4871C21.2761 26.4388 21.1703 26.368 21.0813 26.2787L18.2013 23.3987C17.8263 23.0237 17.8263 22.4163 18.2013 22.0413C18.5763 21.6663 19.1837 21.6663 19.5587 22.0413L21.76 24.2426L25.8813 20.1213C26.2563 19.7463 26.8637 19.7463 27.2387 20.1213C27.6138 20.4963 27.6138 21.1037 27.2387 21.4787L22.4387 26.2787C22.3497 26.368 22.2439 26.4388 22.1275 26.4871C22.011 26.5354 21.8861 26.5602 21.76 26.56ZM10.24 16.96H6.40002C5.86946 16.96 5.44002 16.5306 5.44002 16C5.44002 15.4695 5.86946 15.04 6.40002 15.04H10.24C10.7706 15.04 11.2 15.4695 11.2 16C11.2 16.5306 10.7706 16.96 10.24 16.96Z" fill="#009FD6"/>
</g>
<defs>
<clipPath id="clip0_0_223">
<rect width="32" height="32" fill="white"/>
</clipPath>
</defs>
</svg>
