<svg width="30" height="30" viewBox="0 0 30 30" fill="none" xmlns="http://www.w3.org/2000/svg">
<path d="M16 1C16 0.447715 15.5523 0 15 0C14.4477 0 14 0.447715 14 1V5C14 5.55229 14.4477 6 15 6C15.5523 6 16 5.55229 16 5V1Z" fill="#009FD6"/>
<path d="M9.11578 2.30853C8.83964 1.83024 8.22805 1.66636 7.74975 1.9425C7.27146 2.21865 7.10759 2.83024 7.38373 3.30853L9.38373 6.77263C9.65987 7.25093 10.2715 7.4148 10.7498 7.13866C11.228 6.86252 11.3919 6.25093 11.1158 5.77263L9.11578 2.30853Z" fill="#009FD6"/>
<path d="M3.80847 6.88392C3.33018 6.60777 2.71859 6.77165 2.44244 7.24994C2.1663 7.72823 2.33018 8.33982 2.80847 8.61597L6.27257 10.616C6.75086 10.8921 7.36245 10.7282 7.6386 10.2499C7.91474 9.77165 7.75086 9.16006 7.27257 8.88392L3.80847 6.88392Z" fill="#009FD6"/>
<path d="M1.5 13.5C0.947715 13.5 0.5 13.9477 0.5 14.5C0.5 15.0523 0.947715 15.5 1.5 15.5H5.5C6.05229 15.5 6.5 15.0523 6.5 14.5C6.5 13.9477 6.05229 13.5 5.5 13.5H1.5Z" fill="#009FD6"/>
<path d="M2.80847 20.3839C2.33018 20.6601 2.1663 21.2716 2.44244 21.7499C2.71859 22.2282 3.33018 22.3921 3.80847 22.116L7.27257 20.116C7.75086 19.8398 7.91474 19.2282 7.6386 18.7499C7.36245 18.2716 6.75086 18.1078 6.27257 18.3839L2.80847 20.3839Z" fill="#009FD6"/>
<path d="M7.38398 25.6916C7.10783 26.1699 7.27171 26.7815 7.75 27.0576C8.2283 27.3338 8.83989 27.1699 9.11603 26.6916L11.116 23.2275C11.3922 22.7492 11.2283 22.1376 10.75 21.8615C10.2717 21.5853 9.66012 21.7492 9.38398 22.2275L7.38398 25.6916Z" fill="#009FD6"/>
<path d="M14 28C14 28.5523 14.4477 29 15 29C15.5523 29 16 28.5523 16 28V24C16 23.4477 15.5523 23 15 23C14.4477 23 14 23.4477 14 24V28Z" fill="#009FD6"/>
<path d="M20.8842 26.6924C21.1604 27.1707 21.772 27.3346 22.2502 27.0585C22.7285 26.7823 22.8924 26.1707 22.6163 25.6924L20.6163 22.2283C20.3401 21.7501 19.7285 21.5862 19.2502 21.8623C18.772 22.1385 18.6081 22.7501 18.8842 23.2283L20.8842 26.6924Z" fill="#009FD6"/>
<path d="M26.1923 22.1156C26.6706 22.3917 27.2822 22.2279 27.5583 21.7496C27.8345 21.2713 27.6706 20.6597 27.1923 20.3835L23.7282 18.3835C23.2499 18.1074 22.6383 18.2713 22.3622 18.7496C22.0861 19.2279 22.2499 19.8395 22.7282 20.1156L26.1923 22.1156Z" fill="#009FD6"/>
<path d="M28.5 15.5C29.0523 15.5 29.5 15.0523 29.5 14.5C29.5 13.9477 29.0523 13.5 28.5 13.5H24.5C23.9477 13.5 23.5 13.9477 23.5 14.5C23.5 15.0523 23.9477 15.5 24.5 15.5H28.5Z" fill="#009FD6"/>
<path d="M27.1918 8.6156C27.6701 8.33945 27.8339 7.72786 27.5578 7.24957C27.2817 6.77128 26.6701 6.6074 26.1918 6.88354L22.7277 8.88355C22.2494 9.15969 22.0855 9.77128 22.3616 10.2496C22.6378 10.7279 23.2494 10.8917 23.7277 10.6156L27.1918 8.6156Z" fill="#009FD6"/>
</svg>
