<svg width="32" height="32" viewBox="0 0 32 32" fill="none" xmlns="http://www.w3.org/2000/svg">
<g clip-path="url(#clip0_0_226)">
<path d="M16 0C7.16343 0 0 7.16343 0 16C0 24.8365 7.16343 31.9999 16 31.9999C24.8365 31.9999 31.9999 24.8365 31.9999 16C31.9906 7.16738 24.8326 0.00944196 16 0ZM7.11321 5.54049C9.5948 3.43441 12.7451 2.28061 16 2.28576C19.2414 2.28476 22.3775 3.43734 24.8468 5.53721L5.53259 24.8514C0.636495 19.0823 1.34417 10.4366 7.11321 5.54049ZM24.8868 26.4595C22.4052 28.5656 19.2549 29.7194 16 29.7142C12.7586 29.7152 9.62253 28.5627 7.15319 26.4628L26.4675 7.1485C31.3635 12.9176 30.6558 21.5634 24.8868 26.4595Z" fill="#7A869A"/>
</g>
<defs>
<clipPath id="clip0_0_226">
<rect width="32" height="32" fill="white"/>
</clipPath>
</defs>
</svg>
